<svg width="400" height="80" viewBox="0 0 400 80" fill="none" xmlns="http://www.w3.org/2000/svg">
<rect x="51.25" y="26.25" width="32.5" height="8.75" fill="white"/>
<rect opacity="0.4" x="51.25" y="35" width="32.5" height="21.25" fill="#FE4183"/>
<path d="M67.6 20C62.1775 20 58.9685 24.1363 58.4844 24.8H53.2C51.432 24.8 50 26.232 50 28V55.2C50 56.968 51.432 58.4 53.2 58.4H54.8C54.8 58.8243 54.9686 59.2313 55.2686 59.5313C55.5687 59.8315 55.9756 60 56.4 60C56.8243 60 57.2313 59.8315 57.5314 59.5313C57.8314 59.2313 58 58.8243 58 58.4H77.2C77.2 58.8243 77.3685 59.2313 77.6687 59.5313C77.9687 59.8315 78.3757 60 78.8 60C79.2243 60 79.6313 59.8315 79.9313 59.5313C80.2315 59.2313 80.4 58.8243 80.4 58.4H82C83.768 58.4 85.2 56.968 85.2 55.2V28C85.2 26.232 83.768 24.8 82 24.8H76.7093C76.2948 24.2546 72.913 20 67.6 20ZM67.6 23.2C69.2557 23.2 70.768 23.9656 71.95 24.8H63.1094C64.2582 23.9686 65.785 23.2 67.6 23.2ZM54 28H81.2C81.6417 28 82 28.3584 82 28.8V33.6C82 34.0416 81.6417 34.4 81.2 34.4H54C53.5584 34.4 53.2 34.0416 53.2 33.6V28.8C53.2 28.3584 53.5584 28 54 28ZM58 29.6C57.5756 29.6 57.1687 29.7686 56.8686 30.0686C56.5686 30.3687 56.4 30.7756 56.4 31.2C56.4 31.6243 56.5686 32.0313 56.8686 32.3314C57.1687 32.6314 57.5756 32.8 58 32.8C58.4243 32.8 58.8313 32.6314 59.1314 32.3314C59.4314 32.0313 59.6 31.6243 59.6 31.2C59.6 30.7756 59.4314 30.3687 59.1314 30.0686C58.8313 29.7686 58.4243 29.6 58 29.6ZM64.4 29.6C63.9756 29.6 63.5687 29.7686 63.2686 30.0686C62.9686 30.3687 62.8 30.7756 62.8 31.2C62.8 31.6243 62.9686 32.0313 63.2686 32.3314C63.5687 32.6314 63.9756 32.8 64.4 32.8C64.8243 32.8 65.2313 32.6314 65.5313 32.3314C65.8315 32.0313 66 31.6243 66 31.2C66 30.7756 65.8315 30.3687 65.5313 30.0686C65.2313 29.7686 64.8243 29.6 64.4 29.6ZM70.8 29.6C70.3757 29.6 69.9687 29.7686 69.6687 30.0686C69.3685 30.3687 69.2 30.7756 69.2 31.2C69.2 31.6243 69.3685 32.0313 69.6687 32.3314C69.9687 32.6314 70.3757 32.8 70.8 32.8C71.2243 32.8 71.6313 32.6314 71.9313 32.3314C72.2315 32.0313 72.4 31.6243 72.4 31.2C72.4 30.7756 72.2315 30.3687 71.9313 30.0686C71.6313 29.7686 71.2243 29.6 70.8 29.6ZM77.2 29.6C76.7757 29.6 76.3687 29.7686 76.0687 30.0686C75.7685 30.3687 75.6 30.7756 75.6 31.2C75.6 31.6243 75.7685 32.0313 76.0687 32.3314C76.3687 32.6314 76.7757 32.8 77.2 32.8C77.6243 32.8 78.0313 32.6314 78.3313 32.3314C78.6315 32.0313 78.8 31.6243 78.8 31.2C78.8 30.7756 78.6315 30.3687 78.3313 30.0686C78.0313 29.7686 77.6243 29.6 77.2 29.6ZM55.6 37.6C56.0416 37.6 56.4 37.9583 56.4 38.4C56.4 38.8417 56.0416 39.2 55.6 39.2C55.1584 39.2 54.8 38.8417 54.8 38.4C54.8 37.9583 55.1584 37.6 55.6 37.6ZM58.8 37.6C59.2416 37.6 59.6 37.9583 59.6 38.4C59.6 38.8417 59.2416 39.2 58.8 39.2C58.3584 39.2 58 38.8417 58 38.4C58 37.9583 58.3584 37.6 58.8 37.6ZM62 37.6C62.4416 37.6 62.8 37.9583 62.8 38.4C62.8 38.8417 62.4416 39.2 62 39.2C61.5584 39.2 61.2 38.8417 61.2 38.4C61.2 37.9583 61.5584 37.6 62 37.6ZM65.2 37.6C65.6417 37.6 66 37.9583 66 38.4C66 38.8417 65.6417 39.2 65.2 39.2C64.7583 39.2 64.4 38.8417 64.4 38.4C64.4 37.9583 64.7583 37.6 65.2 37.6ZM68.4 37.6C68.8417 37.6 69.2 37.9583 69.2 38.4C69.2 38.8417 68.8417 39.2 68.4 39.2C67.9583 39.2 67.6 38.8417 67.6 38.4C67.6 37.9583 67.9583 37.6 68.4 37.6ZM71.6 37.6C72.0417 37.6 72.4 37.9583 72.4 38.4C72.4 38.8417 72.0417 39.2 71.6 39.2C71.1583 39.2 70.8 38.8417 70.8 38.4C70.8 37.9583 71.1583 37.6 71.6 37.6ZM74.8 37.6C75.2417 37.6 75.6 37.9583 75.6 38.4C75.6 38.8417 75.2417 39.2 74.8 39.2C74.3583 39.2 74 38.8417 74 38.4C74 37.9583 74.3583 37.6 74.8 37.6ZM78 37.6C78.4417 37.6 78.8 37.9583 78.8 38.4C78.8 38.8417 78.4417 39.2 78 39.2C77.5583 39.2 77.2 38.8417 77.2 38.4C77.2 37.9583 77.5583 37.6 78 37.6ZM81.2 37.6C81.6417 37.6 82 37.9583 82 38.4C82 38.8417 81.6417 39.2 81.2 39.2C80.7583 39.2 80.4 38.8417 80.4 38.4C80.4 37.9583 80.7583 37.6 81.2 37.6ZM54 40.8C54.4416 40.8 54.8 41.1583 54.8 41.6C54.8 42.0417 54.4416 42.4 54 42.4C53.5584 42.4 53.2 42.0417 53.2 41.6C53.2 41.1583 53.5584 40.8 54 40.8ZM57.2 40.8C57.6416 40.8 58 41.1583 58 41.6C58 42.0417 57.6416 42.4 57.2 42.4C56.7584 42.4 56.4 42.0417 56.4 41.6C56.4 41.1583 56.7584 40.8 57.2 40.8ZM60.4 40.8C60.8416 40.8 61.2 41.1583 61.2 41.6C61.2 42.0417 60.8416 42.4 60.4 42.4C59.9584 42.4 59.6 42.0417 59.6 41.6C59.6 41.1583 59.9584 40.8 60.4 40.8ZM63.6 40.8C64.0416 40.8 64.4 41.1583 64.4 41.6C64.4 42.0417 64.0416 42.4 63.6 42.4C63.1584 42.4 62.8 42.0417 62.8 41.6C62.8 41.1583 63.1584 40.8 63.6 40.8ZM66.8 40.8C67.2417 40.8 67.6 41.1583 67.6 41.6C67.6 42.0417 67.2417 42.4 66.8 42.4C66.3583 42.4 66 42.0417 66 41.6C66 41.1583 66.3583 40.8 66.8 40.8ZM70 40.8C70.4417 40.8 70.8 41.1583 70.8 41.6C70.8 42.0417 70.4417 42.4 70 42.4C69.5583 42.4 69.2 42.0417 69.2 41.6C69.2 41.1583 69.5583 40.8 70 40.8ZM73.2 40.8C73.6417 40.8 74 41.1583 74 41.6C74 42.0417 73.6417 42.4 73.2 42.4C72.7583 42.4 72.4 42.0417 72.4 41.6C72.4 41.1583 72.7583 40.8 73.2 40.8ZM76.4 40.8C76.8417 40.8 77.2 41.1583 77.2 41.6C77.2 42.0417 76.8417 42.4 76.4 42.4C75.9583 42.4 75.6 42.0417 75.6 41.6C75.6 41.1583 75.9583 40.8 76.4 40.8ZM79.6 40.8C80.0417 40.8 80.4 41.1583 80.4 41.6C80.4 42.0417 80.0417 42.4 79.6 42.4C79.1583 42.4 78.8 42.0417 78.8 41.6C78.8 41.1583 79.1583 40.8 79.6 40.8ZM55.6 44C56.0416 44 56.4 44.3583 56.4 44.8C56.4 45.2417 56.0416 45.6 55.6 45.6C55.1584 45.6 54.8 45.2417 54.8 44.8C54.8 44.3583 55.1584 44 55.6 44ZM58.8 44C59.2416 44 59.6 44.3583 59.6 44.8C59.6 45.2417 59.2416 45.6 58.8 45.6C58.3584 45.6 58 45.2417 58 44.8C58 44.3583 58.3584 44 58.8 44ZM62 44C62.4416 44 62.8 44.3583 62.8 44.8C62.8 45.2417 62.4416 45.6 62 45.6C61.5584 45.6 61.2 45.2417 61.2 44.8C61.2 44.3583 61.5584 44 62 44ZM65.2 44C65.6417 44 66 44.3583 66 44.8C66 45.2417 65.6417 45.6 65.2 45.6C64.7583 45.6 64.4 45.2417 64.4 44.8C64.4 44.3583 64.7583 44 65.2 44ZM68.4 44C68.8417 44 69.2 44.3583 69.2 44.8C69.2 45.2417 68.8417 45.6 68.4 45.6C67.9583 45.6 67.6 45.2417 67.6 44.8C67.6 44.3583 67.9583 44 68.4 44ZM71.6 44C72.0417 44 72.4 44.3583 72.4 44.8C72.4 45.2417 72.0417 45.6 71.6 45.6C71.1583 45.6 70.8 45.2417 70.8 44.8C70.8 44.3583 71.1583 44 71.6 44ZM74.8 44C75.2417 44 75.6 44.3583 75.6 44.8C75.6 45.2417 75.2417 45.6 74.8 45.6C74.3583 45.6 74 45.2417 74 44.8C74 44.3583 74.3583 44 74.8 44ZM78 44C78.4417 44 78.8 44.3583 78.8 44.8C78.8 45.2417 78.4417 45.6 78 45.6C77.5583 45.6 77.2 45.2417 77.2 44.8C77.2 44.3583 77.5583 44 78 44ZM81.2 44C81.6417 44 82 44.3583 82 44.8C82 45.2417 81.6417 45.6 81.2 45.6C80.7583 45.6 80.4 45.2417 80.4 44.8C80.4 44.3583 80.7583 44 81.2 44ZM54 47.2C54.4416 47.2 54.8 47.5583 54.8 48C54.8 48.4417 54.4416 48.8 54 48.8C53.5584 48.8 53.2 48.4417 53.2 48C53.2 47.5583 53.5584 47.2 54 47.2ZM57.2 47.2C57.6416 47.2 58 47.5583 58 48C58 48.4417 57.6416 48.8 57.2 48.8C56.7584 48.8 56.4 48.4417 56.4 48C56.4 47.5583 56.7584 47.2 57.2 47.2ZM60.4 47.2C60.8416 47.2 61.2 47.5583 61.2 48C61.2 48.4417 60.8416 48.8 60.4 48.8C59.9584 48.8 59.6 48.4417 59.6 48C59.6 47.5583 59.9584 47.2 60.4 47.2ZM63.6 47.2C64.0416 47.2 64.4 47.5583 64.4 48C64.4 48.4417 64.0416 48.8 63.6 48.8C63.1584 48.8 62.8 48.4417 62.8 48C62.8 47.5583 63.1584 47.2 63.6 47.2ZM66.8 47.2C67.2417 47.2 67.6 47.5583 67.6 48C67.6 48.4417 67.2417 48.8 66.8 48.8C66.3583 48.8 66 48.4417 66 48C66 47.5583 66.3583 47.2 66.8 47.2ZM70 47.2C70.4417 47.2 70.8 47.5583 70.8 48C70.8 48.4417 70.4417 48.8 70 48.8C69.5583 48.8 69.2 48.4417 69.2 48C69.2 47.5583 69.5583 47.2 70 47.2ZM73.2 47.2C73.6417 47.2 74 47.5583 74 48C74 48.4417 73.6417 48.8 73.2 48.8C72.7583 48.8 72.4 48.4417 72.4 48C72.4 47.5583 72.7583 47.2 73.2 47.2ZM76.4 47.2C76.8417 47.2 77.2 47.5583 77.2 48C77.2 48.4417 76.8417 48.8 76.4 48.8C75.9583 48.8 75.6 48.4417 75.6 48C75.6 47.5583 75.9583 47.2 76.4 47.2ZM79.6 47.2C80.0417 47.2 80.4 47.5583 80.4 48C80.4 48.4417 80.0417 48.8 79.6 48.8C79.1583 48.8 78.8 48.4417 78.8 48C78.8 47.5583 79.1583 47.2 79.6 47.2ZM55.6 50.4C56.0416 50.4 56.4 50.7583 56.4 51.2C56.4 51.6417 56.0416 52 55.6 52C55.1584 52 54.8 51.6417 54.8 51.2C54.8 50.7583 55.1584 50.4 55.6 50.4ZM58.8 50.4C59.2416 50.4 59.6 50.7583 59.6 51.2C59.6 51.6417 59.2416 52 58.8 52C58.3584 52 58 51.6417 58 51.2C58 50.7583 58.3584 50.4 58.8 50.4ZM62 50.4C62.4416 50.4 62.8 50.7583 62.8 51.2C62.8 51.6417 62.4416 52 62 52C61.5584 52 61.2 51.6417 61.2 51.2C61.2 50.7583 61.5584 50.4 62 50.4ZM65.2 50.4C65.6417 50.4 66 50.7583 66 51.2C66 51.6417 65.6417 52 65.2 52C64.7583 52 64.4 51.6417 64.4 51.2C64.4 50.7583 64.7583 50.4 65.2 50.4ZM68.4 50.4C68.8417 50.4 69.2 50.7583 69.2 51.2C69.2 51.6417 68.8417 52 68.4 52C67.9583 52 67.6 51.6417 67.6 51.2C67.6 50.7583 67.9583 50.4 68.4 50.4ZM71.6 50.4C72.0417 50.4 72.4 50.7583 72.4 51.2C72.4 51.6417 72.0417 52 71.6 52C71.1583 52 70.8 51.6417 70.8 51.2C70.8 50.7583 71.1583 50.4 71.6 50.4ZM74.8 50.4C75.2417 50.4 75.6 50.7583 75.6 51.2C75.6 51.6417 75.2417 52 74.8 52C74.3583 52 74 51.6417 74 51.2C74 50.7583 74.3583 50.4 74.8 50.4ZM78 50.4C78.4417 50.4 78.8 50.7583 78.8 51.2C78.8 51.6417 78.4417 52 78 52C77.5583 52 77.2 51.6417 77.2 51.2C77.2 50.7583 77.5583 50.4 78 50.4ZM81.2 50.4C81.6417 50.4 82 50.7583 82 51.2C82 51.6417 81.6417 52 81.2 52C80.7583 52 80.4 51.6417 80.4 51.2C80.4 50.7583 80.7583 50.4 81.2 50.4ZM54 53.6C54.4416 53.6 54.8 53.9583 54.8 54.4C54.8 54.8417 54.4416 55.2 54 55.2C53.5584 55.2 53.2 54.8417 53.2 54.4C53.2 53.9583 53.5584 53.6 54 53.6ZM57.2 53.6C57.6416 53.6 58 53.9583 58 54.4C58 54.8417 57.6416 55.2 57.2 55.2C56.7584 55.2 56.4 54.8417 56.4 54.4C56.4 53.9583 56.7584 53.6 57.2 53.6ZM60.4 53.6C60.8416 53.6 61.2 53.9583 61.2 54.4C61.2 54.8417 60.8416 55.2 60.4 55.2C59.9584 55.2 59.6 54.8417 59.6 54.4C59.6 53.9583 59.9584 53.6 60.4 53.6ZM63.6 53.6C64.0416 53.6 64.4 53.9583 64.4 54.4C64.4 54.8417 64.0416 55.2 63.6 55.2C63.1584 55.2 62.8 54.8417 62.8 54.4C62.8 53.9583 63.1584 53.6 63.6 53.6ZM66.8 53.6C67.2417 53.6 67.6 53.9583 67.6 54.4C67.6 54.8417 67.2417 55.2 66.8 55.2C66.3583 55.2 66 54.8417 66 54.4C66 53.9583 66.3583 53.6 66.8 53.6ZM70 53.6C70.4417 53.6 70.8 53.9583 70.8 54.4C70.8 54.8417 70.4417 55.2 70 55.2C69.5583 55.2 69.2 54.8417 69.2 54.4C69.2 53.9583 69.5583 53.6 70 53.6ZM73.2 53.6C73.6417 53.6 74 53.9583 74 54.4C74 54.8417 73.6417 55.2 73.2 55.2C72.7583 55.2 72.4 54.8417 72.4 54.4C72.4 53.9583 72.7583 53.6 73.2 53.6ZM76.4 53.6C76.8417 53.6 77.2 53.9583 77.2 54.4C77.2 54.8417 76.8417 55.2 76.4 55.2C75.9583 55.2 75.6 54.8417 75.6 54.4C75.6 53.9583 75.9583 53.6 76.4 53.6ZM79.6 53.6C80.0417 53.6 80.4 53.9583 80.4 54.4C80.4 54.8417 80.0417 55.2 79.6 55.2C79.1583 55.2 78.8 54.8417 78.8 54.4C78.8 53.9583 79.1583 53.6 79.6 53.6Z" fill="#030201"/>
<path d="M109.675 26.2452C112.529 26.2452 114.788 26.8992 116.452 28.207C118.117 29.4851 118.949 31.2091 118.949 33.379C118.949 36.8567 117.522 39.2792 114.669 40.6465C118.533 41.9841 120.465 44.4512 120.465 48.0478C120.465 50.7527 119.306 53.0117 116.987 54.8248C114.669 56.6083 111.756 57.5 108.248 57.5C106.406 57.5 103.656 57.3365 100 57.0096L100.535 46.1752L100 26.2452H109.675ZM109.096 43.7675H105.484L105.439 45.4172L105.752 52.6847C107.476 52.8333 108.798 52.9076 109.72 52.9076C111.295 52.9076 112.514 52.5212 113.376 51.7484C114.268 50.9459 114.713 49.7866 114.713 48.2707C114.713 46.7548 114.268 45.6253 113.376 44.8822C112.484 44.1391 111.057 43.7675 109.096 43.7675ZM108.07 30.7484H105.885L105.618 39.4427H108.516C110.032 39.4427 111.191 39.0414 111.994 38.2389C112.796 37.4066 113.197 36.2325 113.197 34.7166C113.197 32.0711 111.488 30.7484 108.07 30.7484Z" fill="#030201"/>
<path d="M129.341 57.0096C127.587 57.0096 126.146 56.4597 125.016 55.3599C123.916 54.2304 123.367 52.7293 123.367 50.8567C123.367 48.9544 124.229 47.3195 125.953 45.9522C127.677 44.5552 129.772 43.8567 132.239 43.8567H135.271V43.0987C135.271 41.6422 134.974 40.6465 134.379 40.1115C133.785 39.5764 132.67 39.3089 131.035 39.3089C130.352 39.3089 129.534 39.4575 128.583 39.7548C127.662 40.0223 126.621 40.4533 125.462 41.0478L124.169 37.5255C125.447 36.6338 126.993 35.8312 128.806 35.1178C130.649 34.4045 132.165 34.0478 133.354 34.0478C138.02 34.0478 140.354 36.3068 140.354 40.8248V49.5637C140.354 51.2282 140.874 53.086 141.914 55.1369L137.188 57.1433C136.445 55.7166 135.895 54.4384 135.539 53.3089C133.904 55.776 131.838 57.0096 129.341 57.0096ZM131.214 52.4618C132.403 52.4618 133.755 51.8524 135.271 50.6338V47.6465C133.696 47.2898 132.417 47.1115 131.437 47.1115C129.564 47.1115 128.628 47.9437 128.628 49.6083C128.628 50.4703 128.865 51.1688 129.341 51.7038C129.817 52.2091 130.441 52.4618 131.214 52.4618Z" fill="#030201"/>
<path d="M158.712 45.7293C158.712 43.6783 158.534 42.311 158.177 41.6274C157.82 40.9437 156.988 40.6019 155.68 40.6019C154.372 40.6019 152.886 41.1221 151.222 42.1624V45.4172L151.712 55.8949L145.738 57.0096L146.273 46.1752C146.154 42.1921 145.827 38.6253 145.292 35.4745L150.687 34.3153C150.895 36.0393 151.043 37.7187 151.132 39.3535C151.578 38.759 152.084 38.1794 152.648 37.6146C153.213 37.0202 154.105 36.3662 155.324 35.6529C156.542 34.9098 157.82 34.5382 159.158 34.5382C160.525 34.5382 161.67 35.0732 162.591 36.1433C163.512 37.1837 163.973 38.6104 163.973 40.4236L163.706 45.4172L164.196 56.1178L158.177 57.2325L158.712 45.7293Z" fill="#030201"/>
<path d="M180.891 52.6401C178.572 55.5531 176.566 57.0096 174.872 57.0096C172.761 57.0096 171.022 56.1476 169.655 54.4236C168.318 52.6996 167.649 50.4851 167.649 47.7803C167.649 44.0648 168.674 40.9289 170.725 38.3726C172.806 35.8164 175.347 34.5382 178.349 34.5382L180.846 34.8949V34.0478L180.311 23.6147L186.419 22.5L185.84 45.4172V49.3408C185.84 51.1242 186.286 53.1752 187.177 55.4936L182.362 57.5C181.5 55.7166 181.01 54.0966 180.891 52.6401ZM172.642 45.4618C172.642 47.3641 172.984 48.8503 173.668 49.9204C174.381 50.9904 175.392 51.5255 176.7 51.5255C178.037 51.5255 179.419 50.9904 180.846 49.9204V40.2898C179.063 39.9331 177.74 39.7548 176.878 39.7548C175.54 39.7548 174.5 40.2304 173.757 41.1815C173.014 42.1327 172.642 43.5594 172.642 45.4618Z" fill="#030201"/>
<path d="M192.481 57.0096L193.016 46.1752L192.481 27.1369L198.812 26.0223L198.188 45.4172L198.5 52.6401L207.64 51.9268L207.15 57.0096H192.481Z" fill="#030201"/>
<path d="M209.146 47.6911C209.146 43.8864 210.172 40.6614 212.223 38.0159C214.274 35.3705 216.667 34.0478 219.401 34.0478C222.166 34.0478 224.306 34.9395 225.822 36.7229C227.367 38.5064 228.14 40.8694 228.14 43.8121C228.14 47.7357 227.144 51.0053 225.153 53.621C223.191 56.207 220.709 57.5 217.707 57.5C215.24 57.5 213.189 56.5786 211.554 54.7357C209.949 52.8631 209.146 50.5149 209.146 47.6911ZM223.146 46.1306C223.146 41.8206 221.675 39.6656 218.732 39.6656C215.671 39.6656 214.14 41.6868 214.14 45.7293C214.14 47.8397 214.571 49.4894 215.433 50.6783C216.295 51.8673 217.425 52.4618 218.822 52.4618C220.248 52.4618 221.318 51.9268 222.032 50.8567C222.775 49.7569 223.146 48.1815 223.146 46.1306Z" fill="#030201"/>
<path d="M239.573 51.4363H240.153L241.624 45.328L244.032 34.3153L249.56 34.9841L246.216 46.0414L243.407 56.4745L235.783 57.1433L233.153 46.3089L229.942 35.4745L236.006 34.3599L237.923 44.1688L239.573 51.4363Z" fill="#030201"/>
<path d="M260.527 52.4618C261.389 52.4618 262.295 52.2389 263.246 51.793C264.198 51.3471 264.941 50.9013 265.476 50.4554L266.278 49.7866L268.329 52.2834C268.032 52.7887 267.571 53.3684 266.947 54.0223C266.323 54.6762 265.684 55.241 265.03 55.7166C264.406 56.1624 263.558 56.5786 262.488 56.965C261.448 57.3217 260.363 57.5 259.234 57.5C256.826 57.5 254.864 56.5934 253.348 54.7803C251.832 52.9374 251.074 50.5743 251.074 47.6911C251.074 44.0648 252.13 40.8843 254.24 38.1497C256.35 35.4151 258.817 34.0478 261.641 34.0478C263.811 34.0478 265.491 34.6571 266.679 35.8758C267.898 37.0945 268.507 38.8036 268.507 41.0032C268.507 42.311 268.285 43.7972 267.839 45.4618L266.947 46.3981L255.8 47.4236C256.306 50.7824 257.881 52.4618 260.527 52.4618ZM260.527 38.6401C259.219 38.6401 258.119 39.1752 257.227 40.2452C256.336 41.2856 255.815 42.6231 255.667 44.258L263.246 43.3217C263.336 42.638 263.38 42.0732 263.38 41.6274C263.38 39.6359 262.429 38.6401 260.527 38.6401Z" fill="#030201"/>
<path d="M283.717 57.5C280.417 57.5 277.638 56.1178 275.379 53.3535C273.12 50.5892 271.99 47.2006 271.99 43.1879C271.99 38.2834 273.343 34.1518 276.048 30.793C278.782 27.4342 282.126 25.7548 286.08 25.7548C287.625 25.7548 289.052 25.9183 290.36 26.2452C291.697 26.5425 292.649 26.8546 293.213 27.1815L294.016 27.672L290.984 33.8694C290.3 33.2749 289.334 32.7251 288.086 32.2197C286.838 31.6847 285.708 31.4172 284.697 31.4172C282.647 31.4172 280.997 32.2643 279.748 33.9586C278.53 35.6529 277.92 38.0754 277.92 41.2261C277.92 44.3471 278.559 46.9183 279.838 48.9395C281.116 50.931 282.855 51.9268 285.054 51.9268C286.481 51.9268 287.774 51.4809 288.933 50.5892C290.092 49.6975 290.91 48.5085 291.385 47.0223L295.086 49.1624C294.105 51.7781 292.604 53.8291 290.583 55.3153C288.562 56.7718 286.273 57.5 283.717 57.5Z" fill="#FE4183"/>
<path d="M303.904 22.5L303.325 45.4172L303.815 55.8949L297.796 57.0096L298.331 46.1752L297.796 23.6147L303.904 22.5Z" fill="#FE4183"/>
<path d="M314.423 57.0096C312.818 57.0096 311.51 56.4894 310.5 55.449C309.519 54.379 309.029 52.982 309.029 51.258L309.296 46.1306L308.806 35.4299L314.78 34.3153L314.201 47.8694C314.201 49.1476 314.423 50.0839 314.869 50.6783C315.345 51.2728 316.088 51.5701 317.099 51.5701C318.109 51.5701 319.506 51.0648 321.29 50.0541V47.379L320.799 35.6529L326.818 34.5382L326.283 45.6847L326.328 49.3408C326.328 51.2431 326.818 53.1603 327.799 55.0924L323.162 57.1433C322.181 55.2113 321.587 53.6656 321.379 52.5064C318.704 55.5085 316.385 57.0096 314.423 57.0096Z" fill="#FE4183"/>
<path d="M343.617 34.4936C345.608 34.4936 347.228 35.3556 348.477 37.0796C349.725 38.8036 350.349 41.018 350.349 43.7229C350.349 47.6168 349.324 50.8121 347.273 53.3089C345.252 55.776 342.621 57.0096 339.381 57.0096C337.895 57.0096 335.398 56.7718 331.891 56.2962L332.337 46.1752L331.802 23.6147L337.91 22.5L337.33 34.0032V38.8185C337.657 38.3429 338.058 37.8376 338.534 37.3025C339.01 36.7675 339.753 36.173 340.763 35.5191C341.774 34.8355 342.725 34.4936 343.617 34.4936ZM341.878 40.2898C340.511 40.2898 338.995 40.7059 337.33 41.5382V45.4172L337.598 51.9713C338.846 52.12 340.02 52.1943 341.12 52.1943C343.974 52.1943 345.4 50.2176 345.4 46.2643C345.4 42.2813 344.226 40.2898 341.878 40.2898Z" fill="#FE4183"/>
</svg>
