<svg width="400" height="80" viewBox="0 0 400 80" fill="none" xmlns="http://www.w3.org/2000/svg">
<path d="M169.023 38H166V21.0898H176.781V23.6445H169.023V28.6367H176.113V31.0977H169.023V38ZM178.75 38V25.5781H181.668V38H178.75ZM180.191 23.7031C179.312 23.7031 178.598 22.9883 178.598 22.1211C178.598 21.2422 179.312 20.5391 180.191 20.5391C181.094 20.5391 181.797 21.2422 181.797 22.1211C181.797 22.9883 181.094 23.7031 180.191 23.7031ZM184.117 38V25.5781H186.918V27.7109H186.977C187.645 26.2344 188.969 25.3438 190.879 25.3438C193.621 25.3438 195.18 27.1016 195.18 29.9727V38H192.262V30.5586C192.262 28.8008 191.441 27.8164 189.777 27.8164C188.102 27.8164 187.035 29.0234 187.035 30.8047V38H184.117ZM202.152 38.1992C199.023 38.1992 196.996 35.7266 196.996 31.7773C196.996 27.8516 199.023 25.3672 202.152 25.3672C203.934 25.3672 205.34 26.293 205.996 27.6641H206.066V21.0898H208.984V38H206.125V35.8789H206.078C205.398 37.2734 203.969 38.1992 202.152 38.1992ZM203.031 27.7695C201.156 27.7695 199.984 29.3281 199.984 31.7891C199.984 34.2617 201.145 35.8086 203.031 35.8086C204.871 35.8086 206.078 34.25 206.078 31.7891C206.078 29.3516 204.871 27.7695 203.031 27.7695ZM224.301 38H221.289V31.332L215.359 21.0898H218.676L222.777 28.4492H222.848L226.938 21.0898H230.23L224.301 31.332V38ZM237.238 38.2461C233.594 38.2461 231.227 35.8203 231.227 31.7891C231.227 27.7812 233.617 25.3203 237.238 25.3203C240.859 25.3203 243.25 27.7695 243.25 31.7891C243.25 35.8203 240.883 38.2461 237.238 38.2461ZM237.238 35.9375C239.09 35.9375 240.285 34.4375 240.285 31.7891C240.285 29.1523 239.09 27.6406 237.238 27.6406C235.398 27.6406 234.191 29.1523 234.191 31.7891C234.191 34.4375 235.387 35.9375 237.238 35.9375ZM256.141 25.5781V38H253.328V35.8438H253.27C252.613 37.3555 251.359 38.2227 249.473 38.2227C246.777 38.2227 245.066 36.4766 245.066 33.6055V25.5781H247.984V33.0195C247.984 34.8008 248.852 35.7617 250.492 35.7617C252.18 35.7617 253.223 34.5664 253.223 32.7617V25.5781H256.141ZM258.52 38V25.5781H261.32V27.7461H261.379C261.801 26.2344 262.891 25.3672 264.355 25.3672C264.73 25.3672 265.059 25.4375 265.27 25.4844V28.1211C265.023 28.0273 264.578 27.957 264.086 27.957C262.434 27.957 261.438 29.0234 261.438 30.7695V38H258.52Z" fill="#00241C"/>
<path d="M168.918 60H166V43.0898H168.625L177.016 54.9375H177.121V43.0898H180.027V60H177.426L169.023 48.1406H168.918V60ZM188.078 49.582C186.438 49.582 185.254 50.8359 185.137 52.5703H190.938C190.879 50.8125 189.754 49.582 188.078 49.582ZM190.949 56.2852H193.68C193.305 58.6289 191.125 60.2461 188.184 60.2461C184.457 60.2461 182.207 57.7969 182.207 53.8359C182.207 49.9102 184.48 47.3203 188.066 47.3203C191.594 47.3203 193.797 49.7695 193.797 53.543V54.4922H185.113V54.668C185.113 56.6602 186.332 57.9961 188.242 57.9961C189.602 57.9961 190.633 57.3164 190.949 56.2852ZM212.523 47.5781L209.16 60H206.09L203.641 50.918H203.582L201.145 60H198.098L194.734 47.5781H197.664L199.762 57.1172H199.82L202.246 47.5781H205.047L207.473 57.1172H207.543L209.641 47.5781H212.523ZM213.754 51.1406C213.754 48.8672 215.734 47.3203 218.734 47.3203C221.758 47.3203 223.68 48.9492 223.75 51.3047H221.031C220.914 50.1797 220.082 49.4648 218.734 49.4648C217.445 49.4648 216.59 50.0742 216.59 50.9883C216.59 51.7031 217.105 52.1953 218.406 52.4883L220.469 52.9453C223.047 53.5195 224.043 54.5156 224.043 56.3203C224.043 58.6641 221.887 60.2461 218.84 60.2461C215.594 60.2461 213.672 58.6992 213.438 56.2969H216.309C216.531 57.5039 217.363 58.1133 218.84 58.1133C220.258 58.1133 221.137 57.5273 221.137 56.6016C221.137 55.8516 220.691 55.4297 219.391 55.1367L217.328 54.6797C214.949 54.1523 213.754 52.9805 213.754 51.1406ZM225.977 60V43.0898H228.895V60H225.977ZM236.734 49.582C235.094 49.582 233.91 50.8359 233.793 52.5703H239.594C239.535 50.8125 238.41 49.582 236.734 49.582ZM239.605 56.2852H242.336C241.961 58.6289 239.781 60.2461 236.84 60.2461C233.113 60.2461 230.863 57.7969 230.863 53.8359C230.863 49.9102 233.137 47.3203 236.723 47.3203C240.25 47.3203 242.453 49.7695 242.453 53.543V54.4922H233.77V54.668C233.77 56.6602 234.988 57.9961 236.898 57.9961C238.258 57.9961 239.289 57.3164 239.605 56.2852ZM245.137 44.6719H248.055V47.5781H250.398V49.8281H248.055V56.2852C248.055 57.3047 248.523 57.7734 249.555 57.7734C249.824 57.7734 250.199 57.75 250.387 57.7148V59.9414C250.07 60.0117 249.496 60.0586 248.875 60.0586C246.191 60.0586 245.137 59.1094 245.137 56.6953V49.8281H243.355V47.5781H245.137V44.6719ZM253.188 44.6719H256.105V47.5781H258.449V49.8281H256.105V56.2852C256.105 57.3047 256.574 57.7734 257.605 57.7734C257.875 57.7734 258.25 57.75 258.438 57.7148V59.9414C258.121 60.0117 257.547 60.0586 256.926 60.0586C254.242 60.0586 253.188 59.1094 253.188 56.6953V49.8281H251.406V47.5781H253.188V44.6719ZM265.785 49.582C264.145 49.582 262.961 50.8359 262.844 52.5703H268.645C268.586 50.8125 267.461 49.582 265.785 49.582ZM268.656 56.2852H271.387C271.012 58.6289 268.832 60.2461 265.891 60.2461C262.164 60.2461 259.914 57.7969 259.914 53.8359C259.914 49.9102 262.187 47.3203 265.773 47.3203C269.301 47.3203 271.504 49.7695 271.504 53.543V54.4922H262.82V54.668C262.82 56.6602 264.039 57.9961 265.949 57.9961C267.309 57.9961 268.34 57.3164 268.656 56.2852ZM273.379 60V47.5781H276.18V49.7461H276.238C276.66 48.2344 277.75 47.3672 279.215 47.3672C279.59 47.3672 279.918 47.4375 280.129 47.4844V50.1211C279.883 50.0273 279.437 49.957 278.945 49.957C277.293 49.957 276.297 51.0234 276.297 52.7695V60H273.379Z" fill="#00241C"/>
<g filter="url(#filter0_d_22_70)">
<path d="M143 14H117C109.82 14 104 19.8203 104 27V53C104 60.1797 109.82 66 117 66H143C150.18 66 156 60.1797 156 53V27C156 19.8203 150.18 14 143 14Z" fill="black"/>
</g>
<path d="M143 14H117C109.82 14 104 19.8203 104 27V53C104 60.1797 109.82 66 117 66H143C150.18 66 156 60.1797 156 53V27C156 19.8203 150.18 14 143 14Z" fill="#03DBAF"/>
<path d="M143 15H117C110.373 15 105 20.3726 105 27V53C105 59.6274 110.373 65 117 65H143C149.627 65 155 59.6274 155 53V27C155 20.3726 149.627 15 143 15Z" fill="white"/>
<mask id="mask0_22_70" style="mask-type:luminance" maskUnits="userSpaceOnUse" x="105" y="15" width="50" height="50">
<path d="M143 15H117C110.373 15 105 20.3726 105 27V53C105 59.6274 110.373 65 117 65H143C149.627 65 155 59.6274 155 53V27C155 20.3726 149.627 15 143 15Z" fill="#CCE3DD"/>
</mask>
<g mask="url(#mask0_22_70)">
<path d="M159 25H110C109.448 25 109 25.4477 109 26V32C109 32.5523 109.448 33 110 33H159C159.552 33 160 32.5523 160 32V26C160 25.4477 159.552 25 159 25Z" fill="#CCE3DD"/>
</g>
<mask id="mask1_22_70" style="mask-type:luminance" maskUnits="userSpaceOnUse" x="105" y="15" width="50" height="50">
<path d="M143 15H117C110.373 15 105 20.3726 105 27V53C105 59.6274 110.373 65 117 65H143C149.627 65 155 59.6274 155 53V27C155 20.3726 149.627 15 143 15Z" fill="#CCE3DD"/>
</mask>
<g mask="url(#mask1_22_70)">
<path d="M159 36H134C133.448 36 133 36.4477 133 37V43C133 43.5523 133.448 44 134 44H159C159.552 44 160 43.5523 160 43V37C160 36.4477 159.552 36 159 36Z" fill="#CCE3DD"/>
</g>
<mask id="mask2_22_70" style="mask-type:luminance" maskUnits="userSpaceOnUse" x="105" y="15" width="50" height="50">
<path d="M143 15H117C110.373 15 105 20.3726 105 27V53C105 59.6274 110.373 65 117 65H143C149.627 65 155 59.6274 155 53V27C155 20.3726 149.627 15 143 15Z" fill="#CCE3DD"/>
</mask>
<g mask="url(#mask2_22_70)">
<path d="M129 36H110C109.448 36 109 36.4477 109 37V54C109 54.5523 109.448 55 110 55H129C129.552 55 130 54.5523 130 54V37C130 36.4477 129.552 36 129 36Z" fill="#CCE3DD"/>
</g>
<mask id="mask3_22_70" style="mask-type:luminance" maskUnits="userSpaceOnUse" x="105" y="15" width="50" height="50">
<path d="M143 15H117C110.373 15 105 20.3726 105 27V53C105 59.6274 110.373 65 117 65H143C149.627 65 155 59.6274 155 53V27C155 20.3726 149.627 15 143 15Z" fill="#CCE3DD"/>
</mask>
<g mask="url(#mask3_22_70)">
<path d="M159 47H134C133.448 47 133 47.4477 133 48V54C133 54.5523 133.448 55 134 55H159C159.552 55 160 54.5523 160 54V48C160 47.4477 159.552 47 159 47Z" fill="#CCE3DD"/>
</g>
<mask id="mask4_22_70" style="mask-type:luminance" maskUnits="userSpaceOnUse" x="105" y="15" width="50" height="50">
<path d="M143 15H117C110.373 15 105 20.3726 105 27V53C105 59.6274 110.373 65 117 65H143C149.627 65 155 59.6274 155 53V27C155 20.3726 149.627 15 143 15Z" fill="#00241C"/>
</mask>
<g mask="url(#mask4_22_70)">
<path d="M145.758 50.1562C147.242 47.8208 148.113 45.05 148.113 42.0714C148.113 33.749 141.374 27 133.061 27C124.739 27 118 33.749 118 42.0714C118 50.3937 124.739 57.1427 133.052 57.1427C136.07 57.1427 138.88 56.2521 141.235 54.7281L141.918 54.2531L152.665 65L156 61.6057L145.263 50.8589L145.758 50.1562ZM141.486 33.5141C143.752 35.7804 145 38.7953 145 42C145 45.2047 143.752 48.2196 141.486 50.4859C139.22 52.7521 136.205 54 133 54C129.795 54 126.78 52.7521 124.514 50.4859C122.248 48.2196 121 45.2047 121 42C121 38.7953 122.248 35.7804 124.514 33.5141C126.78 31.2479 129.795 30 133 30C136.205 30 139.22 31.2479 141.486 33.5141Z" fill="#00241C"/>
</g>
<defs>
<filter id="filter0_d_22_70" x="102" y="12" width="60" height="60" filterUnits="userSpaceOnUse" color-interpolation-filters="sRGB">
<feFlood flood-opacity="0" result="BackgroundImageFix"/>
<feColorMatrix in="SourceAlpha" type="matrix" values="0 0 0 0 0 0 0 0 0 0 0 0 0 0 0 0 0 0 127 0" result="hardAlpha"/>
<feOffset dx="2" dy="2"/>
<feGaussianBlur stdDeviation="2"/>
<feColorMatrix type="matrix" values="0 0 0 0 0.0252506 0 0 0 0 0.346354 0 0 0 0 0.280204 0 0 0 0.1 0"/>
<feBlend mode="normal" in2="BackgroundImageFix" result="effect1_dropShadow_22_70"/>
<feBlend mode="normal" in="SourceGraphic" in2="effect1_dropShadow_22_70" result="shape"/>
</filter>
</defs>
</svg>
