<svg width="160" height="160" viewBox="0 0 160 160" fill="none" xmlns="http://www.w3.org/2000/svg">
<path d="M40 136.5V24H56.5625V71.5C59.1667 67.0208 62.7604 63.5312 67.3438 61.0312C72.0312 58.4271 77.1875 57.125 82.8124 57.125C92.0832 57.125 99.3748 60.0417 104.688 65.8748C110 71.7084 112.656 80.4064 112.656 91.9688V136.5H96.25V93.6876C96.25 78.6876 90.2604 71.1876 78.2812 71.1876C72.0312 71.1876 66.8229 73.3748 62.6562 77.75C58.5938 82.1248 56.5625 88.3748 56.5625 96.5V136.5H40Z" fill="#0B3954"/>
<path d="M109.375 44.7812C106.25 44.7812 103.646 43.7916 101.562 41.8125C99.5832 39.7292 98.5936 37.2812 98.5936 34.4688C98.5936 31.5521 99.5832 29.1042 101.562 27.125C103.646 25.0417 106.25 24 109.375 24C112.5 24 115.052 25.0417 117.031 27.125C119.01 29.1042 120 31.5521 120 34.4688C120 37.2812 119.01 39.7292 117.031 41.8125C115.052 43.7916 112.5 44.7812 109.375 44.7812Z" fill="url(#paint0_linear_687_194)"/>
<defs>
<linearGradient id="paint0_linear_687_194" x1="116.141" y1="25.8483" x2="103.871" y2="43.3034" gradientUnits="userSpaceOnUse">
<stop stop-color="#F4B965"/>
<stop offset="1" stop-color="#F58C72"/>
</linearGradient>
</defs>
</svg>
