<svg width="400" height="80" viewBox="0 0 400 80" fill="none" xmlns="http://www.w3.org/2000/svg">
<g clip-path="url(#clip0_22_70)">
<path d="M135.16 55.9998L144.96 31.1998V55.9998H147.6V27.2798H143.92L134.12 52.1998L124.32 27.2798H120.52V55.9998H123.16V31.1998L132.96 55.9998H135.16Z" fill="#212529"/>
<path d="M161.182 58.5601L170.422 35.1201H167.662L161.222 52.1601L154.782 35.1201H151.982L159.822 55.2801L158.622 58.1601C157.662 60.5201 156.782 61.2001 155.262 61.2001C154.622 61.2001 154.182 61.1601 153.462 60.9201V63.2801C154.102 63.4401 154.582 63.5201 155.382 63.5201C158.502 63.5201 159.942 61.6801 161.182 58.5601Z" fill="#212529"/>
<path d="M179.137 44.8798H185.497C191.897 44.8798 195.897 41.7998 195.897 36.0798C195.897 30.2798 191.897 27.2798 185.497 27.2798H174.017V55.9998H179.137V44.8798ZM179.137 40.4798V31.6798H185.217C188.897 31.6798 190.857 33.2398 190.857 36.0798C190.857 38.8798 188.897 40.4798 185.217 40.4798H179.137Z" fill="#212529"/>
<path d="M206.955 56.4401C211.155 56.4401 214.475 54.2401 215.955 50.5601L211.835 49.0001C211.195 51.1601 209.315 52.3601 206.955 52.3601C203.875 52.3601 201.715 50.1601 201.355 46.5601H216.075V44.9601C216.075 39.2001 212.835 34.6001 206.755 34.6001C200.915 34.6001 196.755 39.3601 196.755 45.5201C196.755 52.0001 200.955 56.4401 206.955 56.4401ZM206.715 38.6401C209.755 38.6401 211.195 40.6401 211.235 42.9601H201.595C202.315 40.1201 204.235 38.6401 206.715 38.6401Z" fill="#212529"/>
<path d="M231.596 34.9599C231.236 34.9199 230.796 34.8799 230.236 34.8799C227.556 34.8799 225.396 36.1599 224.476 38.1199V34.9999H219.676V55.9999H224.476V44.9599C224.476 41.5999 226.796 39.6399 229.836 39.6399C230.516 39.6399 230.996 39.6799 231.596 39.7599V34.9599Z" fill="#212529"/>
<path d="M245.022 26.8798C244.142 26.8398 243.782 26.8398 243.022 26.8398C238.302 26.8398 235.861 29.2798 235.861 33.6398V34.9998H232.941V39.0798H235.861V55.9998H240.662V39.0798H244.942V34.9998H240.662V33.9998C240.662 31.5998 241.702 31.0398 243.582 31.0398C244.182 31.0398 244.462 31.0398 245.022 31.0798V26.8798Z" fill="#212529"/>
<path d="M256.368 56.4401C260.568 56.4401 263.888 54.2401 265.368 50.5601L261.248 49.0001C260.608 51.1601 258.728 52.3601 256.368 52.3601C253.288 52.3601 251.128 50.1601 250.768 46.5601H265.488V44.9601C265.488 39.2001 262.248 34.6001 256.168 34.6001C250.328 34.6001 246.168 39.3601 246.168 45.5201C246.168 52.0001 250.368 56.4401 256.368 56.4401ZM256.128 38.6401C259.168 38.6401 260.608 40.6401 260.648 42.9601H251.008C251.728 40.1201 253.648 38.6401 256.128 38.6401Z" fill="#212529"/>
<path d="M272.57 45.5201C272.57 41.2401 274.81 38.7201 278.09 38.7201C280.65 38.7201 282.21 40.4401 282.81 42.7201L286.85 40.5201C285.73 37.1601 282.61 34.6001 278.09 34.6001C272.09 34.6001 267.77 39.0401 267.77 45.5201C267.77 52.0001 272.09 56.4401 278.09 56.4401C282.65 56.4401 285.85 53.7601 286.93 50.3601L282.81 48.2801C282.21 50.6001 280.65 52.2801 278.09 52.2801C274.81 52.2801 272.57 49.8001 272.57 45.5201Z" fill="#212529"/>
<path d="M290.272 50.7198C290.272 54.9998 292.432 56.2398 296.432 56.2398C297.672 56.2398 298.872 56.1198 299.752 55.9598V51.9198C299.032 51.9998 298.592 52.0398 297.792 52.0398C296.072 52.0398 294.992 51.8398 294.992 49.9598V39.0798H299.392V34.9998H294.992V28.8398H290.272V34.9998H287.352V39.0798H290.272V50.7198Z" fill="#212529"/>
<path d="M301.708 55.9598C303.068 56.1998 304.108 56.2798 305.508 56.2798C311.348 56.2798 314.668 53.5598 314.668 47.8398V27.2798H309.548V47.4398C309.548 50.6398 307.988 51.7198 304.908 51.7198C303.668 51.7198 303.068 51.6398 301.708 51.3998V55.9598Z" fill="#212529"/>
<path d="M338.4 45.5201C338.4 39.0001 334.2 34.6001 328.28 34.6001C322.36 34.6001 318.16 39.0001 318.16 45.5201C318.16 52.0401 322.36 56.4401 328.28 56.4401C334.2 56.4401 338.4 52.0401 338.4 45.5201ZM323 45.5201C323 41.2401 325.04 38.6401 328.28 38.6401C331.52 38.6401 333.56 41.2401 333.56 45.5201C333.56 49.8001 331.52 52.4001 328.28 52.4001C325.04 52.4001 323 49.8001 323 45.5201Z" fill="#212529"/>
<path d="M352.978 56.4398C358.858 56.4398 362.218 51.4798 362.218 45.5198C362.218 39.5598 358.858 34.5998 352.978 34.5998C350.258 34.5998 348.258 35.6798 346.938 37.2398V27.2798H342.138V55.9998H346.938V53.7998C348.258 55.3598 350.258 56.4398 352.978 56.4398ZM346.818 44.9198C346.818 40.9598 349.058 38.7998 352.018 38.7998C355.498 38.7998 357.378 41.5198 357.378 45.5198C357.378 49.5198 355.498 52.2398 352.018 52.2398C349.058 52.2398 346.818 50.0398 346.818 46.1598V44.9198Z" fill="#212529"/>
<path d="M75 8H63C48.6406 8 37 19.6406 37 34V46C37 60.3594 48.6406 72 63 72H75C89.3594 72 101 60.3594 101 46V34C101 19.6406 89.3594 8 75 8Z" fill="#01DB17"/>
<path d="M88.0968 40.0162C84.5706 38.1234 81.494 36.1358 78.5382 34.1998C78.03 29.8242 77.2038 25.4918 76.0666 21.2363C75.8876 20.633 75.3942 20.175 74.7796 20.0402C74.1652 19.9053 73.5256 20.1154 73.1108 20.5881C71.1888 22.8464 69.424 25.2342 67.8304 27.7353C63.504 25.5013 58.8752 23.9111 54.089 23.0166C53.3768 22.8818 52.6569 23.205 52.2844 23.8264C51.912 24.4478 51.9664 25.2351 52.421 25.7995C55.6187 29.7576 58.5398 33.6208 61.3226 37.3888C58.4378 40.7162 55.3188 43.8318 51.9889 46.714C51.1246 47.5004 50.2604 48.2524 49.5431 48.9524C48.9908 49.4726 48.8422 50.2928 49.1784 50.9738C49.5137 51.6548 50.2544 52.0378 51.0036 51.9168C57.0534 50.9228 63.103 49.713 69.2132 48.261C71.633 51.6056 73.975 54.812 76.3344 57.8886C76.6628 58.3146 77.1702 58.5636 77.7086 58.5628C77.8606 58.5636 78.012 58.5436 78.158 58.5022C78.8338 58.3182 79.3324 57.7452 79.4198 57.0502C79.7948 53.2442 79.8492 49.4138 79.584 45.5992C82.2864 44.8558 85.0174 44.0634 87.777 43.2224C88.4424 43.0186 88.9212 42.4352 88.9912 41.743C89.0612 41.0498 88.7086 40.3826 88.0968 40.0508V40.0162Z" fill="white"/>
</g>
<defs>
<clipPath id="clip0_22_70">
<rect width="326" height="64" fill="white" transform="translate(37 8)"/>
</clipPath>
</defs>
</svg>
