<svg width="400" height="80" viewBox="0 0 400 80" fill="none" xmlns="http://www.w3.org/2000/svg">
<rect width="400" height="80" fill="white"/>
<path d="M53.7771 40.8345L71.5543 58.3345H36L53.7771 40.8345Z" fill="#FF2638"/>
<path d="M36 23.3345L53.7771 40.8345L71.5543 23.3345H36Z" fill="#FFC600"/>
<path d="M53.78 40.8345L71.5572 58.3345L89.3343 40.8345L71.5572 23.3345L53.78 40.8345Z" fill="#0079F2"/>
<path d="M357.72 31.6286C357.72 31.8829 357.369 31.9943 357.203 31.8C355.903 30.2886 353.754 29.1429 350.814 29.1429C344.451 29.1429 340.834 34.28 340.834 40.5C340.834 46.68 344.451 51.8143 350.814 51.8143C353.794 51.8143 356.123 50.7714 357.569 48.9714C357.731 48.7714 358.094 48.88 358.094 49.1371V51.06C358.094 51.2029 358.209 51.3171 358.349 51.3171H362.411C362.554 51.3171 362.669 51.2029 362.669 51.06V20.2571C362.669 20.1889 362.641 20.1235 362.593 20.0753C362.545 20.0271 362.48 20 362.411 20H357.974C357.907 20.0008 357.842 20.0282 357.794 20.0763C357.747 20.1245 357.72 20.1894 357.72 20.2571V31.6286ZM357.926 40.5C357.926 44.3857 355.64 47.4314 351.854 47.4314C348.111 47.4314 345.783 44.3829 345.783 40.5C345.783 36.5343 348.111 33.5286 351.854 33.5286C355.64 33.5286 357.926 36.5343 357.926 40.5ZM339.6 29.7143C339.6 29.6502 339.576 29.5883 339.533 29.5412C339.489 29.494 339.43 29.465 339.366 29.46C339.208 29.4479 339.05 29.4402 338.891 29.4371C335.834 29.4371 334.054 30.6629 333.074 31.8629C332.909 32.0629 332.529 31.9543 332.529 31.6914V29.9C332.529 29.8323 332.502 29.7673 332.454 29.7192C332.407 29.671 332.342 29.6436 332.274 29.6429H328.209C328.141 29.6436 328.076 29.671 328.029 29.7192C327.981 29.7673 327.954 29.8323 327.954 29.9V51.06C327.954 51.2029 328.069 51.3171 328.209 51.3171H332.649C332.716 51.3164 332.781 51.289 332.829 51.2408C332.876 51.1927 332.903 51.1277 332.903 51.06V40.0429C332.903 35.8657 334.983 34.0286 338.477 34.0286C338.774 34.0286 339.089 34.0571 339.306 34.0771C339.342 34.0811 339.379 34.0775 339.414 34.0664C339.449 34.0554 339.482 34.0372 339.509 34.0131C339.537 33.9889 339.559 33.9593 339.575 33.926C339.59 33.8928 339.599 33.8567 339.6 33.82V29.7143ZM318.643 41.1714C318.679 41.1661 318.717 41.1687 318.752 41.179C318.787 41.1894 318.82 41.2072 318.848 41.2313C318.876 41.2554 318.898 41.2853 318.914 41.3188C318.929 41.3524 318.937 41.3888 318.937 41.4257V42.5057C318.937 45.4286 316.983 47.9343 312.989 47.9343C310.617 47.9343 309.16 47.14 309.16 45.0943C309.16 43.5914 310.16 42.4657 313.197 42.0029L318.643 41.1714ZM311.991 51.8171C315.069 51.8171 317.383 50.92 318.883 49.16C319.046 48.9657 319.403 49.0743 319.414 49.3314C319.474 50.5743 319.651 51.3143 319.686 51.3143H323.997C324.18 51.3143 324.309 51.1257 324.251 50.9514C323.951 50.0029 323.76 48.4657 323.76 47.2229V37.2429C323.76 32.2743 320.766 29.1429 314.446 29.1429C308.077 29.1429 305.469 32.48 304.954 36.1686C304.95 36.204 304.954 36.24 304.965 36.274C304.975 36.308 304.993 36.3394 305.017 36.3661C305.041 36.3928 305.07 36.4142 305.102 36.4289C305.135 36.4436 305.17 36.4513 305.206 36.4514H309.529C309.654 36.4514 309.757 36.36 309.786 36.2371C310.189 34.36 311.714 33.2371 314.32 33.2371C317.271 33.2371 318.937 34.5714 318.937 37.2029V37.3143C318.937 37.376 318.915 37.4357 318.874 37.4824C318.834 37.5291 318.778 37.5597 318.717 37.5686L312.697 38.4143C307 39.2057 304.423 41.5857 304.423 45.26C304.423 48.9743 306.626 51.8171 311.991 51.8171ZM291.323 51.8171C298.226 51.8171 302.551 46.5971 302.551 40.5029C302.551 34.4057 298.226 29.1429 291.323 29.1429C284.46 29.1429 280.137 34.4057 280.137 40.5C280.137 46.5971 284.46 51.8171 291.323 51.8171ZM285.086 40.5029C285.086 36.2829 287.746 33.5286 291.323 33.5286C294.943 33.5286 297.603 36.2829 297.603 40.5C297.603 44.6771 294.943 47.4314 291.323 47.4314C287.746 47.4314 285.086 44.68 285.086 40.5029ZM261.911 31.8C261.746 31.9943 261.397 31.8829 261.397 31.6286V20.2571C261.397 20.1889 261.37 20.1235 261.322 20.0753C261.274 20.0271 261.208 20 261.14 20H256.703C256.635 20 256.569 20.0271 256.521 20.0753C256.473 20.1235 256.446 20.1889 256.446 20.2571V51.0571C256.446 51.2 256.56 51.3143 256.703 51.3143H260.766C260.909 51.3143 261.023 51.2 261.023 51.0571V49.1143C261.023 48.8571 261.377 48.7486 261.537 48.9486C263.014 50.7629 265.346 51.8171 268.3 51.8171C274.703 51.8171 278.323 46.68 278.323 40.5029C278.323 34.28 274.703 29.1429 268.3 29.1429C265.394 29.1429 263.22 30.2886 261.911 31.8ZM261.229 40.5C261.229 36.5343 263.514 33.5286 267.3 33.5286C271.043 33.5286 273.374 36.5343 273.374 40.5C273.374 44.3857 271.043 47.4314 267.3 47.4314C263.517 47.4314 261.229 44.3829 261.229 40.5ZM252.243 47.2314C252.242 47.1913 252.232 47.1519 252.214 47.116C252.195 47.0801 252.17 47.0487 252.138 47.0239C252.106 46.9991 252.07 46.9815 252.031 46.9724C251.991 46.9634 251.951 46.963 251.911 46.9714C251.626 47.0286 251.186 47.1 250.706 47.1C249 47.1 248.294 46.2629 248.294 44.5514V33.8657C248.295 33.798 248.322 33.7333 248.371 33.6857C248.419 33.6381 248.484 33.6114 248.551 33.6114H252.071C252.214 33.6114 252.329 33.4971 252.329 33.3543V29.9057C252.329 29.8375 252.301 29.7721 252.253 29.7239C252.205 29.6757 252.14 29.6486 252.071 29.6486H248.549C248.515 29.6486 248.481 29.6419 248.45 29.629C248.419 29.6161 248.391 29.5971 248.367 29.5733C248.343 29.5494 248.324 29.521 248.311 29.4898C248.298 29.4586 248.291 29.4252 248.291 29.3914V24.2686C248.291 24.2009 248.265 24.1359 248.217 24.0877C248.17 24.0396 248.105 24.0122 248.037 24.0114H243.6C243.532 24.0114 243.466 24.0385 243.418 24.0867C243.37 24.135 243.343 24.2004 243.343 24.2686V29.3943C243.343 29.4281 243.336 29.4615 243.323 29.4927C243.31 29.5239 243.291 29.5522 243.268 29.5761C243.244 29.6 243.215 29.6189 243.184 29.6319C243.153 29.6448 243.12 29.6514 243.086 29.6514H240.314C240.247 29.6514 240.182 29.6781 240.133 29.7257C240.085 29.7733 240.058 29.838 240.057 29.9057V33.36C240.057 33.5029 240.171 33.6171 240.314 33.6171H243.086C243.229 33.6171 243.343 33.7314 243.343 33.8714V45.0571C243.343 49.1486 245.257 51.4457 249.666 51.4457C250.889 51.4457 251.706 51.3086 252.054 51.2371C252.109 51.2252 252.157 51.1948 252.192 51.151C252.226 51.1072 252.244 51.0528 252.243 50.9971V47.2314ZM217.334 40.5C217.334 46.7629 221.743 51.8143 228.106 51.8143C234.351 51.8143 237.591 47.5686 238.289 43.7571C238.295 43.7211 238.293 43.6841 238.284 43.6488C238.274 43.6135 238.257 43.5808 238.233 43.5529C238.209 43.5251 238.18 43.5029 238.146 43.4878C238.113 43.4727 238.077 43.4652 238.04 43.4657H233.463C233.405 43.4662 233.35 43.4855 233.304 43.5206C233.259 43.5556 233.226 43.6046 233.211 43.66C232.571 45.8914 230.651 47.4314 228.063 47.4314C224.529 47.4314 222.283 44.5514 222.283 40.5C222.283 36.4086 224.529 33.5286 228.063 33.5286C230.651 33.5286 232.571 35.0686 233.211 37.3C233.243 37.4143 233.346 37.4943 233.463 37.4943H238.04C238.077 37.4948 238.113 37.4873 238.146 37.4722C238.18 37.4571 238.209 37.4349 238.233 37.4071C238.257 37.3792 238.274 37.3465 238.284 37.3112C238.293 37.2759 238.295 37.2389 238.289 37.2029C237.591 33.3914 234.351 29.1457 228.106 29.1457C221.743 29.1457 217.334 34.1971 217.334 40.5ZM209 42.1286C209 45.6771 207.089 47.5571 204.011 47.5571C201.017 47.5571 199.811 45.5943 199.811 42.6314V29.9C199.811 29.8318 199.784 29.7664 199.736 29.7182C199.688 29.6699 199.622 29.6429 199.554 29.6429H195.117C195.049 29.6429 194.984 29.6699 194.935 29.7182C194.887 29.7664 194.86 29.8318 194.86 29.9V43.3C194.86 48.3514 197.566 51.8143 202.803 51.8143C205.711 51.8143 207.697 50.72 208.809 49.3629C208.977 49.1571 209.377 49.2743 209.377 49.54V51.06C209.377 51.2029 209.491 51.3171 209.634 51.3171H213.694C213.837 51.3171 213.951 51.2029 213.951 51.06V29.9C213.951 29.8318 213.924 29.7664 213.876 29.7182C213.828 29.6699 213.762 29.6429 213.694 29.6429H209.257C209.189 29.6429 209.124 29.6699 209.075 29.7182C209.027 29.7664 209 29.8318 209 29.9V42.1286ZM186.114 31.6286C186.114 31.8829 185.763 31.9943 185.597 31.8C184.297 30.2886 182.149 29.1429 179.209 29.1429C172.846 29.1429 169.226 34.28 169.226 40.5C169.226 46.68 172.846 51.8143 179.209 51.8143C182.186 51.8143 184.514 50.7714 185.963 48.9714C186.126 48.7714 186.486 48.88 186.486 49.1371V51.06C186.486 51.2029 186.6 51.3171 186.743 51.3171H190.806C190.949 51.3171 191.063 51.2029 191.063 51.06V20.2571C191.063 20.1889 191.036 20.1235 190.988 20.0753C190.939 20.0271 190.874 20 190.806 20H186.369C186.3 20 186.235 20.0271 186.187 20.0753C186.139 20.1235 186.111 20.1889 186.111 20.2571L186.114 31.6286ZM186.32 40.5C186.32 44.3857 184.034 47.4314 180.249 47.4314C176.506 47.4314 174.174 44.3829 174.174 40.5C174.174 36.5343 176.506 33.5286 180.249 33.5286C184.031 33.5286 186.32 36.5343 186.32 40.5ZM156 51.8171C162.906 51.8171 167.229 46.5971 167.229 40.5029C167.229 34.4029 162.909 29.1429 156 29.1429C149.14 29.1429 144.814 34.4057 144.814 40.5C144.814 46.5971 149.14 51.8171 156 51.8171ZM149.763 40.5029C149.763 36.2829 152.423 33.5286 156 33.5286C159.62 33.5286 162.28 36.2829 162.28 40.5C162.28 44.6771 159.62 47.4314 156 47.4314C152.423 47.4314 149.763 44.68 149.763 40.5029ZM144.246 29.7143C144.246 29.6502 144.222 29.5883 144.178 29.5412C144.135 29.494 144.075 29.465 144.011 29.46C143.855 29.4479 143.697 29.4402 143.54 29.4371C140.483 29.4371 138.7 30.6629 137.72 31.8629C137.554 32.0629 137.177 31.9543 137.177 31.6914V29.9C137.177 29.8318 137.15 29.7664 137.102 29.7182C137.054 29.6699 136.988 29.6429 136.92 29.6429H132.857C132.789 29.6429 132.724 29.6699 132.675 29.7182C132.627 29.7664 132.6 29.8318 132.6 29.9V51.06C132.6 51.2029 132.714 51.3171 132.857 51.3171H137.294C137.437 51.3171 137.551 51.2029 137.551 51.06V40.0429C137.551 35.8657 139.629 34.0286 143.123 34.0286C143.423 34.0286 143.734 34.0571 143.951 34.0771C143.988 34.0811 144.025 34.0775 144.06 34.0664C144.095 34.0554 144.127 34.0372 144.155 34.0131C144.183 33.9889 144.205 33.9593 144.221 33.926C144.236 33.8928 144.245 33.8567 144.246 33.82V29.7143ZM112.617 49.3486C112.617 49.0914 112.971 48.98 113.14 49.1771C114.446 50.7057 116.62 51.8171 119.523 51.8171C125.926 51.8171 129.546 46.68 129.546 40.5029C129.546 34.28 125.926 29.1429 119.523 29.1429C116.566 29.1429 114.234 30.2314 112.757 32.0286C112.597 32.2257 112.243 32.1143 112.243 31.8571V29.9C112.243 29.8318 112.216 29.7664 112.168 29.7182C112.119 29.6699 112.054 29.6429 111.986 29.6429H107.926C107.858 29.6429 107.792 29.6699 107.744 29.7182C107.696 29.7664 107.669 29.8318 107.669 29.9V59.7429C107.669 59.8857 107.783 60 107.926 60H112.363C112.506 60 112.62 59.8857 112.62 59.7429L112.617 49.3486ZM112.451 40.5C112.451 36.4914 114.737 33.4429 118.523 33.4429C122.266 33.4429 124.597 36.4914 124.597 40.5C124.597 44.3857 122.266 47.4314 118.523 47.4314C114.74 47.4314 112.451 44.3829 112.451 40.5Z" fill="#000C2C"/>
</svg>
