<svg width="400" height="80" viewBox="0 0 400 80" fill="none" xmlns="http://www.w3.org/2000/svg">
<g clip-path="url(#clip0_22_70)">
<path fill-rule="evenodd" clip-rule="evenodd" d="M199.15 38.8018L195.591 52H190.522L185 30.8623H190.552L193.408 45.1445H193.525L197.056 30.8623H201.362L204.893 45.1445H205.01L207.866 30.8623H213.418L207.896 52H202.827L199.268 38.8018H199.15ZM222.808 39.3584C221.211 39.3584 220.024 40.5449 219.893 42.2002H225.693C225.605 40.501 224.448 39.3584 222.808 39.3584ZM225.811 46.9609H230.498C230 50.2568 227.07 52.3809 222.896 52.3809C217.812 52.3809 214.78 49.2607 214.78 44.1045C214.78 38.9482 217.842 35.667 222.72 35.667C227.524 35.667 230.586 38.8164 230.586 43.6943V45.1592H219.819V45.4814C219.819 47.3857 221.094 48.7041 222.969 48.7041C224.36 48.7041 225.444 48.0449 225.811 46.9609ZM240.137 39.3584C238.54 39.3584 237.354 40.5449 237.222 42.2002H243.022C242.935 40.501 241.777 39.3584 240.137 39.3584ZM243.14 46.9609H247.827C247.329 50.2568 244.399 52.3809 240.225 52.3809C235.142 52.3809 232.109 49.2607 232.109 44.1045C232.109 38.9482 235.171 35.667 240.049 35.667C244.854 35.667 247.915 38.8164 247.915 43.6943V45.1592H237.148V45.4814C237.148 47.3857 238.423 48.7041 240.298 48.7041C241.689 48.7041 242.773 48.0449 243.14 46.9609ZM255.298 42.1123L259.883 36.0479H265.669L260 42.874L266.006 52H260.029L256.147 45.9795L255.21 47.1074V52H250.01V30.8623H255.21V42.1123H255.298ZM266.973 52V30.8623H272.173V52H266.973ZM277.168 57.874C277.095 57.874 275.337 57.874 275.264 57.8594V53.9336C275.337 53.9482 276.318 53.9629 276.392 53.9629C278.018 53.9629 278.794 53.5527 278.926 52.5859C278.926 52.498 278.984 52.1025 278.955 52L273.579 36.0479H279.307L282.192 48.1035H282.295L285.151 36.0479H290.63L285.532 51.9561C284.17 56.2334 281.826 57.874 277.168 57.874Z" fill="#010E22"/>
<g filter="url(#filter0_d_22_70)">
<path d="M158 10H122C115.373 10 110 15.3726 110 22V58C110 64.6274 115.373 70 122 70H158C164.627 70 170 64.6274 170 58V22C170 15.3726 164.627 10 158 10Z" fill="url(#paint0_linear_22_70)"/>
</g>
<path fill-rule="evenodd" clip-rule="evenodd" d="M119 43.0814H121.969C122.117 43.9783 123.084 44.5007 124.311 44.5007C125.556 44.5007 126.366 43.9434 126.366 43.1772C126.366 42.4807 125.826 42.1237 124.337 41.8363L123.049 41.5925C120.541 41.1224 119.244 39.8947 119.244 37.9791C119.244 35.5586 121.342 34 124.233 34C127.394 34 129.257 35.5499 129.292 37.9443H126.323C126.27 37.0388 125.417 36.4989 124.259 36.4989C123.101 36.4989 122.413 37.0213 122.413 37.7614C122.413 38.4232 122.988 38.7889 124.355 39.0501L125.643 39.2939C128.325 39.8076 129.544 40.896 129.544 42.8725C129.544 45.3975 127.568 46.9996 124.25 46.9996C121.116 46.9996 119.044 45.5542 119 43.0814ZM134.734 44.7967C135.674 44.7967 136.492 44.2221 136.492 43.3775V42.7245L134.768 42.8377C133.959 42.8986 133.506 43.273 133.506 43.8303C133.506 44.431 134.002 44.7967 134.734 44.7967ZM133.637 46.9213C131.878 46.9213 130.45 45.7545 130.45 44.0392C130.45 42.263 131.817 41.2704 134.272 41.1224L136.492 40.9918V40.4519C136.492 39.6944 135.953 39.2765 135.143 39.2765C134.307 39.2765 133.776 39.7118 133.689 40.2952H130.911C130.998 38.3535 132.653 37.0736 135.3 37.0736C137.833 37.0736 139.514 38.3709 139.514 40.2778V46.7819H136.51V45.4324H136.449C135.935 46.3901 134.777 46.9213 133.637 46.9213ZM144.912 44.7967C145.853 44.7967 146.671 44.2221 146.671 43.3775V42.7245L144.947 42.8377C144.137 42.8986 143.684 43.273 143.684 43.8303C143.684 44.431 144.181 44.7967 144.912 44.7967ZM143.815 46.9213C142.056 46.9213 140.628 45.7545 140.628 44.0392C140.628 42.263 141.995 41.2704 144.451 41.1224L146.671 40.9918V40.4519C146.671 39.6944 146.131 39.2765 145.321 39.2765C144.486 39.2765 143.954 39.7118 143.867 40.2952H141.09C141.177 38.3535 142.831 37.0736 145.478 37.0736C148.012 37.0736 149.692 38.3709 149.692 40.2778V46.7819H146.688V45.4324H146.627C146.114 46.3901 144.956 46.9213 143.815 46.9213ZM150.456 43.0814H153.425C153.573 43.9783 154.539 44.5007 155.767 44.5007C157.012 44.5007 157.822 43.9434 157.822 43.1772C157.822 42.4807 157.282 42.1237 155.793 41.8363L154.505 41.5925C151.997 41.1224 150.7 39.8947 150.7 37.9791C150.7 35.5586 152.798 34 155.689 34C158.849 34 160.713 35.5499 160.747 37.9443H157.778C157.726 37.0388 156.873 36.4989 155.715 36.4989C154.557 36.4989 153.869 37.0213 153.869 37.7614C153.869 38.4232 154.444 38.7889 155.811 39.0501L157.099 39.2939C159.781 39.8076 161 40.896 161 42.8725C161 45.3975 159.023 46.9996 155.706 46.9996C152.572 46.9996 150.499 45.5542 150.456 43.0814Z" fill="white"/>
</g>
<defs>
<filter id="filter0_d_22_70" x="98" y="2" width="84" height="84" filterUnits="userSpaceOnUse" color-interpolation-filters="sRGB">
<feFlood flood-opacity="0" result="BackgroundImageFix"/>
<feColorMatrix in="SourceAlpha" type="matrix" values="0 0 0 0 0 0 0 0 0 0 0 0 0 0 0 0 0 0 127 0" result="hardAlpha"/>
<feOffset dy="4"/>
<feGaussianBlur stdDeviation="6"/>
<feColorMatrix type="matrix" values="0 0 0 0 0.721569 0 0 0 0 0.745098 0 0 0 0 0.780392 0 0 0 0.5 0"/>
<feBlend mode="normal" in2="BackgroundImageFix" result="effect1_dropShadow_22_70"/>
<feBlend mode="normal" in="SourceGraphic" in2="effect1_dropShadow_22_70" result="shape"/>
</filter>
<linearGradient id="paint0_linear_22_70" x1="112.5" y1="10" x2="170" y2="70" gradientUnits="userSpaceOnUse">
<stop stop-color="#4599F4"/>
<stop offset="1" stop-color="#9C47F2"/>
</linearGradient>
<clipPath id="clip0_22_70">
<rect width="400" height="80" fill="white"/>
</clipPath>
</defs>
</svg>
