<svg width="400" height="80" viewBox="0 0 400 80" fill="none" xmlns="http://www.w3.org/2000/svg">
<rect width="400" height="80" fill="white"/>
<path d="M180.412 44.5522H184.668C184.952 46.3595 186.774 47.4348 189.224 47.4348C191.628 47.4348 193.271 46.2698 193.271 44.6867C193.271 43.2678 192.256 42.4613 189.552 41.9086L187.282 41.4606C182.981 40.6092 180.875 38.5481 180.875 35.3369C180.875 31.3939 184.31 28.7802 189.104 28.7802C194.138 28.7802 197.304 31.4089 197.379 35.3668H193.122C192.973 33.5297 191.375 32.4245 189.104 32.4245C186.879 32.4245 185.385 33.47 185.385 35.0532C185.385 36.3824 186.431 37.2039 188.97 37.7117L191.255 38.1747C195.81 39.0858 197.797 40.9229 197.797 44.1938C197.797 48.4056 194.496 51.0791 189.104 51.0791C183.966 51.0791 180.546 48.6147 180.412 44.5522ZM202.233 56.6352C202.068 56.6352 200.724 56.6203 200.575 56.5904V53.2299C200.724 53.2597 201.516 53.2597 201.68 53.2597C203.263 53.2597 204.055 52.7519 204.354 51.4824C204.354 51.4227 204.518 50.7804 204.503 50.7207L198.932 34.6947H203.711L207.117 47.2108H207.206L210.597 34.6947H215.197L209.686 51.0642C208.326 55.1715 206.31 56.6352 202.233 56.6352ZM216.526 39.3994C216.526 36.3526 219.155 34.3512 223.232 34.3512C227.34 34.3512 229.879 36.4571 229.968 39.5936H225.951C225.816 38.2942 224.845 37.413 223.232 37.413C221.724 37.413 220.723 38.1 220.723 39.1605C220.723 39.9819 221.321 40.5346 222.934 40.8781L225.667 41.4606C229.012 42.1625 230.386 43.4769 230.386 45.8218C230.386 48.9732 227.504 51.0493 223.382 51.0493C218.961 51.0493 216.407 48.9881 216.123 45.8367H220.38C220.648 47.2407 221.649 47.9874 223.382 47.9874C225.025 47.9874 226.04 47.3153 226.04 46.2698C226.04 45.4185 225.488 44.9406 223.919 44.5821L221.186 44.0146C218.094 43.3574 216.526 41.8041 216.526 39.3994ZM233.702 31.0056H238.063V34.6947H241.021V37.9806H238.063V45.6425C238.063 46.8673 238.661 47.4498 239.945 47.4498C240.334 47.4498 240.737 47.4199 241.006 47.3751V50.5863C240.558 50.6908 239.811 50.7655 238.93 50.7655C235.166 50.7655 233.702 49.5109 233.702 46.3893V37.9806H231.447V34.6947H233.702V31.0056ZM250.594 37.5773C248.683 37.5773 247.309 39.0261 247.159 41.0274H253.955C253.865 38.9812 252.536 37.5773 250.594 37.5773ZM254.015 45.8068H258.017C257.539 48.9433 254.672 51.0493 250.714 51.0493C245.785 51.0493 242.828 47.8978 242.828 42.7749C242.828 37.6669 245.815 34.3512 250.55 34.3512C255.21 34.3512 258.152 37.5026 258.152 42.3716V43.7009H247.114V43.9698C247.114 46.2549 248.563 47.8232 250.789 47.8232C252.387 47.8232 253.611 47.0316 254.015 45.8068ZM260.392 50.7057V34.6947H264.604V37.5922H264.694C265.366 35.6655 267.083 34.396 269.264 34.396C271.579 34.396 273.192 35.5908 273.73 37.6818H273.819C274.536 35.6655 276.448 34.396 278.793 34.396C281.929 34.396 284.035 36.5467 284.035 39.7728V50.7057H279.674V40.8631C279.674 39.0111 278.748 37.9955 277.06 37.9955C275.403 37.9955 274.312 39.2053 274.312 40.9826V50.7057H270.115V40.7287C270.115 39.0111 269.145 37.9955 267.531 37.9955C265.874 37.9955 264.753 39.2501 264.753 41.0424V50.7057H260.392ZM286.873 50.7057V34.6947H291.234V50.7057H286.873ZM289.039 32.529C287.769 32.529 286.769 31.5134 286.769 30.2887C286.769 29.049 287.769 28.0483 289.039 28.0483C290.308 28.0483 291.309 29.049 291.309 30.2887C291.309 31.5134 290.308 32.529 289.039 32.529ZM308.679 40.654H304.632C304.378 38.9663 303.258 37.7715 301.465 37.7715C299.315 37.7715 297.97 39.5936 297.97 42.6853C297.97 45.8367 299.315 47.629 301.48 47.629C303.228 47.629 304.363 46.5835 304.632 44.836H308.694C308.47 48.6147 305.647 51.0493 301.435 51.0493C296.611 51.0493 293.549 47.9128 293.549 42.6853C293.549 37.5474 296.611 34.3512 301.406 34.3512C305.737 34.3512 308.485 37.0247 308.679 40.654Z" fill="#44035A"/>
<g filter="url(#filter0_d_22_70)">
<path d="M158.294 15.5293H97.1177C94.5836 15.5293 92.5294 17.5835 92.5294 20.1175V59.8822C92.5294 62.4163 94.5836 64.4705 97.1177 64.4705H158.294C160.828 64.4705 162.882 62.4163 162.882 59.8822V20.1175C162.882 17.5835 160.828 15.5293 158.294 15.5293Z" fill="black"/>
</g>
<path d="M158.294 15.5293H97.1177C94.5836 15.5293 92.5294 17.5835 92.5294 20.1175V59.8822C92.5294 62.4163 94.5836 64.4705 97.1177 64.4705H158.294C160.828 64.4705 162.882 62.4163 162.882 59.8822V20.1175C162.882 17.5835 160.828 15.5293 158.294 15.5293Z" fill="#8509B0"/>
<path opacity="0.5" d="M157.529 16.2939H97.8824C95.3484 16.2939 93.2941 18.3482 93.2941 20.8822V59.1175C93.2941 61.6515 95.3484 63.7057 97.8824 63.7057H157.529C160.063 63.7057 162.118 61.6515 162.118 59.1175V20.8822C162.118 18.3482 160.063 16.2939 157.529 16.2939Z" fill="white" stroke="#979797"/>
<path opacity="0.5" fill-rule="evenodd" clip-rule="evenodd" d="M92.8655 27.1462C96.0007 27.1255 99.6558 28.9754 101.384 29.7712C139.781 47.4552 130.117 34.8722 162.43 27.1462C165.108 26.5059 163.247 34.8722 163.274 37.1849C163.33 42.0268 165.361 59.4656 162.43 63.315C160.011 66.4914 115.096 65.1996 95.9202 64.375C90.3956 64.1374 93.6142 59.2891 93.6142 55.9134C93.6142 39.4289 93.3646 29.8398 92.8655 27.1462Z" fill="white"/>
<path d="M158.294 66H97.1176C93.7438 66 91 63.0848 91 59.5V20.5C91 16.9153 93.7438 14 97.1176 14H158.294C161.668 14 164.412 16.9153 164.412 20.5V59.5C164.412 63.0848 161.668 66 158.294 66ZM97.1176 17.0588C95.4307 17.0588 94.0588 18.5287 94.0588 20.3361V59.6639C94.0588 61.4713 95.4307 62.9412 97.1176 62.9412H158.294C159.981 62.9412 161.353 61.4713 161.353 59.6639V20.3361C161.353 18.5287 159.981 17.0588 158.294 17.0588H97.1176Z" fill="#44035A"/>
<path d="M100.369 37.6845C100.46 37.8472 100.628 38.1357 100.872 38.532C101.273 39.1829 101.745 39.9057 102.286 40.6825C103.828 42.8985 105.617 45.1137 107.639 47.1859C113.496 53.1885 120.094 56.8237 127.317 56.8237C136.545 56.8237 145.821 50.8114 154.957 37.8211C155.443 37.1302 155.277 36.1762 154.586 35.6903C153.895 35.2044 152.941 35.3706 152.455 36.0615C143.843 48.3065 135.422 53.7648 127.317 53.7648C121.058 53.7648 115.163 50.5177 109.828 45.0497C107.933 43.1072 106.248 41.0209 104.796 38.9354C104.289 38.2067 103.848 37.5315 103.477 36.9278C103.257 36.5714 103.112 36.3221 103.043 36.1981C102.632 35.4599 101.701 35.1942 100.963 35.6046C100.224 36.015 99.9587 36.9462 100.369 37.6845Z" fill="#44035A"/>
<path d="M118.28 28.5121C117.834 27.8306 117.045 26.8668 115.937 25.902C111.377 21.9295 105.86 21.9295 100.527 28.3743C99.9889 29.0251 100.08 29.9892 100.731 30.5277C101.382 31.0661 102.346 30.9751 102.884 30.3243C107.042 25.2985 110.588 25.2985 113.928 28.2084C114.435 28.6501 114.888 29.1265 115.277 29.6012C115.504 29.8793 115.655 30.0866 115.72 30.1865C116.182 30.8934 117.13 31.0916 117.837 30.6293C118.544 30.1669 118.742 29.219 118.28 28.5121Z" fill="#44035A"/>
<path d="M154.986 28.5121C154.54 27.8306 153.751 26.8668 152.643 25.902C148.083 21.9295 142.566 21.9295 137.233 28.3743C136.695 29.0251 136.786 29.9892 137.437 30.5277C138.087 31.0661 139.051 30.9751 139.59 30.3243C143.748 25.2985 147.294 25.2985 150.634 28.2084C151.141 28.6501 151.594 29.1265 151.983 29.6012C152.21 29.8793 152.36 30.0866 152.426 30.1865C152.888 30.8934 153.836 31.0916 154.543 30.6293C155.25 30.1669 155.448 29.219 154.986 28.5121Z" fill="#44035A"/>
<defs>
<filter id="filter0_d_22_70" x="86.5294" y="9.5293" width="82.353" height="60.9414" filterUnits="userSpaceOnUse" color-interpolation-filters="sRGB">
<feFlood flood-opacity="0" result="BackgroundImageFix"/>
<feColorMatrix in="SourceAlpha" type="matrix" values="0 0 0 0 0 0 0 0 0 0 0 0 0 0 0 0 0 0 127 0" result="hardAlpha"/>
<feOffset/>
<feGaussianBlur stdDeviation="3"/>
<feColorMatrix type="matrix" values="0 0 0 0 0.992074 0 0 0 0 0.974456 0 0 0 0 0.974456 0 0 0 0.5 0"/>
<feBlend mode="normal" in2="BackgroundImageFix" result="effect1_dropShadow_22_70"/>
<feBlend mode="normal" in="SourceGraphic" in2="effect1_dropShadow_22_70" result="shape"/>
</filter>
</defs>
</svg>
