<svg width="400" height="80" viewBox="0 0 400 80" fill="none" xmlns="http://www.w3.org/2000/svg">
<g clip-path="url(#clip0_22_70)">
<path d="M132.084 41.8591C130.896 26.2701 142.934 15.3976 155.977 15.3976C169.019 15.3976 180.948 26.1678 179.888 41.6436C180.948 42.1477 181.967 42.6957 182.942 43.2803C183.136 41.9687 183.238 40.6279 183.238 39.2652C183.242 24.206 171.036 12 155.98 12C140.925 12 128.715 24.206 128.715 39.2652C128.715 40.6827 128.825 42.0783 129.033 43.4374C130.016 42.8748 131.032 42.3487 132.084 41.8591V41.8591Z" fill="#FFF2D6"/>
<path d="M149.631 40.2626C150.018 37.3217 152.437 35.0237 155.484 35.0237C158.531 35.0237 160.942 37.2595 161.391 40.1421C170.715 40.6462 179.684 42.5825 186.804 45.9875C184.776 44.3069 182.442 42.8602 179.888 41.64C180.948 26.1642 168.961 15.394 155.977 15.394C142.993 15.394 130.896 26.2665 132.084 41.8555C129.566 43.0282 127.232 44.4056 125.153 45.9875C132.263 42.8273 140.834 40.9166 149.631 40.2626Z" fill="url(#paint0_linear_22_70)"/>
<path d="M98.973 36.6163C99.1666 36.5323 99.3383 36.6346 99.3566 36.8428L99.5137 38.5124L100.248 45.4977C100.266 45.6621 100.135 45.8046 99.9704 45.8046H99.5648C99.437 45.8046 99.3274 45.7133 99.2945 45.5854C98.0925 40.4451 91.8745 39.1737 89.2221 38.8778V61.2584C89.2221 62.9426 90.0222 66.4754 93.102 66.6691C93.2518 66.68 93.3687 66.7969 93.3687 66.9431V67.2427C93.3687 67.3961 93.2445 67.5203 93.091 67.5203H79.1643C79.0109 67.5203 78.8867 67.3961 78.8867 67.2427V66.9431C78.8867 66.7933 79.0036 66.6764 79.1534 66.6691C82.1893 66.4718 83.0333 62.9426 83.0333 61.2584V38.8778H83.0296C80.3736 39.1774 74.1592 40.4451 72.9572 45.589C72.928 45.7169 72.8184 45.8082 72.6869 45.8082H72.2777C72.1133 45.8082 71.9854 45.6658 72 45.5014L72.6942 38.5124L72.8513 36.8428C72.8695 36.6456 73.0339 36.5469 73.2239 36.6127C76.5412 37.8146 82.9273 37.8694 86.124 37.8694C89.3207 37.8694 96.3864 37.727 98.9693 36.62L98.973 36.6163Z" fill="#666666"/>
<path d="M205.867 62.5226C204.351 63.9511 202.079 64.6635 199.803 64.6635C197.976 64.6635 196.146 64.1739 194.852 63.1473C192.489 61.3206 191.418 58.6427 191.243 55.7894C193.577 55.0441 201.326 55.2889 205.937 55.9648C206.105 55.9904 206.255 55.8588 206.255 55.6908C206.328 49.849 202.773 45.7134 196.949 45.7134C189.862 45.7134 185.27 49.8161 185.27 56.9914C185.27 63.4542 189.504 67.9588 196.102 67.9588C200.738 67.9588 204.395 65.997 206.313 62.8331L205.867 62.5226V62.5226ZM195.568 46.8277C198.74 46.4331 200.687 49.7759 200.734 53.8093C199.569 53.6339 198.151 53.528 196.617 53.528C194.462 53.528 192.533 53.7326 191.214 54.0577C191.338 51.1752 192.302 47.2405 195.568 46.8277Z" fill="#666666"/>
<path d="M110.222 33.8837V47.7337C110.222 47.9456 110.47 48.0589 110.627 47.92C112.297 46.4404 114.368 45.7207 117.086 45.7609C123.151 45.7609 124.397 49.8198 124.397 52.3151V62.0331C124.397 65.4124 126.18 66.4865 127.035 66.6473C127.162 66.6729 127.25 66.7861 127.25 66.9176V67.2391C127.25 67.3926 127.126 67.5168 126.973 67.5168H115.402C115.249 67.5168 115.125 67.3926 115.125 67.2391V66.9249C115.125 66.7861 115.231 66.6692 115.369 66.6509C116.385 66.4975 118.38 65.4234 118.38 61.9015V51.8693C118.38 50.2655 117.265 47.3209 113.831 47.5437C112.45 47.6314 110.799 48.6142 110.222 50.7076V61.9417C110.222 65.3321 112.428 66.4756 113.349 66.6436C113.477 66.6655 113.568 66.7825 113.568 66.914V67.2355C113.568 67.3889 113.444 67.5131 113.291 67.5131H101.589C101.435 67.5131 101.311 67.3889 101.311 67.2355V66.9176C101.311 66.7825 101.41 66.6692 101.545 66.6436C102.509 66.4829 104.208 65.3321 104.208 61.8029V44.3251C104.208 41.6508 103.708 37.9719 101.534 37.654C101.402 37.6358 101.307 37.5152 101.307 37.38V37.2521C101.307 37.1133 101.413 36.9928 101.552 36.9781C104.943 36.5507 106.627 35.8821 109.798 33.6572C110.032 33.4928 110.222 33.5915 110.222 33.8764V33.8837Z" fill="#666666"/>
<path d="M227.05 45.8631L235.032 63.5929C236.238 61.5872 238.021 57.2178 238.021 54.1855C238.021 50.8865 235.39 50.3531 235.434 47.8542C235.434 44.8219 241.765 44.4675 241.765 48.9684C241.765 51.1532 240.56 54.5873 239.135 57.795C237.641 61.1379 235.84 64.309 233.779 67.3888C233.728 67.4655 233.64 67.513 233.545 67.513H230.308C230.199 67.513 230.1 67.4509 230.056 67.3523L225.851 58.2846C224.489 61.7553 222.867 64.5757 220.985 67.3888C220.934 67.4655 220.846 67.513 220.751 67.513H217.511C217.401 67.513 217.302 67.4509 217.259 67.3523L210.511 52.8447C209.397 50.4444 208.611 49.3192 206.448 49.1584C206.302 49.1475 206.185 49.0305 206.185 48.8808V48.7894C206.185 48.6579 206.277 48.5447 206.408 48.5191C208.922 48.0332 211.654 47.0906 213.854 45.7389C213.996 45.6512 214.182 45.706 214.252 45.8594L222.147 63.3153C223.93 59.5267 225.179 56.8524 223.305 52.8374C222.403 50.8645 221.42 49.3447 219.242 49.1548C219.096 49.1402 218.983 49.0232 218.983 48.8771V48.7821C218.983 48.6506 219.074 48.541 219.202 48.5118C222.063 47.8834 224.503 46.9773 226.655 45.7279C226.798 45.6439 226.98 45.7023 227.05 45.8521V45.8631Z" fill="#666666"/>
<path d="M254.541 45.7134C261.318 45.7134 265.374 50.1705 265.374 56.8599C265.374 63.5492 261.004 68.0063 254.227 68.0063C247.45 68.0063 243.081 63.7721 243.081 56.8599C243.081 49.9477 247.538 45.7134 254.538 45.7134H254.541ZM249.529 56.1C249.529 59.7095 249.821 66.9797 254.519 66.9797C258.261 66.9797 258.885 60.4694 258.885 57.5723C258.885 53.9152 258.593 46.4696 253.895 46.7838C250.11 47.0505 249.529 53.159 249.529 56.1036V56.1Z" fill="#666666"/>
<path d="M274.964 46.1007V51.4201C276.615 47.8982 279.198 45.7573 282.545 45.7573C286.958 45.7573 286.958 52.0448 284.017 52.0448C281.92 52.0886 281.251 50.1706 279.023 50.1706C277.328 50.1706 276.034 51.4639 274.964 53.2029V62.0295C274.964 65.4125 277.127 66.4866 278.04 66.6437C278.172 66.6656 278.263 66.7826 278.263 66.9141V67.2319C278.263 67.3854 278.139 67.5096 277.985 67.5096H265.882C265.728 67.5096 265.604 67.3854 265.604 67.2319V66.9177C265.604 66.7789 265.71 66.662 265.849 66.6437C266.875 66.4939 268.947 65.4162 268.947 61.8943V53.4221C268.947 50.7625 268.45 49.3413 266.265 49.1586C266.119 49.1477 266.002 49.0271 266.002 48.881V48.8042C266.002 48.6654 266.104 48.5485 266.243 48.5302C268.49 48.2051 272.717 46.9483 274.544 45.8523C274.73 45.7427 274.964 45.8779 274.964 46.0934V46.1007Z" fill="#666666"/>
<path d="M294.414 34.3991V55.1868C294.414 55.4024 294.692 55.4937 294.816 55.3183C298.06 50.7735 301.217 45.7574 305.068 45.7574C309.481 45.7574 308.991 51.5517 306.003 51.5992C302.66 51.643 302.079 47.6755 298.868 51.7344L306.449 64.218C307.336 65.6136 308.506 66.3662 309.876 66.6292C310.007 66.6548 310.102 66.7644 310.102 66.8996V67.2393C310.102 67.3928 309.978 67.517 309.824 67.517H300.472C300.472 66.3114 300.161 65.6903 299.493 64.5285L294.9 56.7249C294.582 57.1597 294.411 57.6857 294.411 58.2228V61.8981C294.411 65.2884 296.581 66.4721 297.494 66.6438C297.622 66.6694 297.71 66.7863 297.71 66.9142V67.2357C297.71 67.3891 297.586 67.5133 297.432 67.5133H285.328C285.175 67.5133 285.051 67.3891 285.051 67.2357V66.9142C285.051 66.779 285.153 66.6694 285.285 66.6438C286.26 66.4721 288.394 65.2884 288.394 61.8981V44.3326C288.394 41.6583 287.893 38.1474 285.679 37.8442C285.548 37.8259 285.453 37.7054 285.453 37.5702V37.4387C285.453 37.2999 285.551 37.1866 285.686 37.1647C287.963 36.7957 292.029 35.4476 293.983 34.1652C294.166 34.0447 294.411 34.1799 294.411 34.4027L294.414 34.3991Z" fill="#666666"/>
<path d="M320.167 45.7573C323.013 45.7573 325.359 46.3821 326.922 47.5548C327.025 47.6315 327.083 47.7484 327.09 47.8763L327.375 52.7755C327.386 52.9362 327.258 53.0714 327.098 53.0714H326.747C326.626 53.0714 326.52 52.9947 326.484 52.8778C325.388 49.4911 323.042 46.7839 319.367 46.7839C316.872 46.7839 315.535 48.2562 315.535 49.9039C315.535 51.1972 316.338 52.5344 318.03 53.2029C319.634 53.8277 321.15 54.2734 322.71 54.7629C325.965 55.8334 328.46 57.8829 328.329 61.6751C328.106 66.6255 323.514 68.0503 319.323 68.0064C316.605 68.0064 313.839 67.3379 311.567 66.3113L311.227 60.053C311.22 59.8923 311.344 59.7607 311.505 59.7607H311.859C311.976 59.7607 312.082 59.8375 312.122 59.9471C313.412 63.6516 315.239 66.6766 318.877 66.9835C320.927 67.1625 323.247 66.4939 323.203 63.9512C323.203 62.8807 322.67 61.8103 321.731 61.1417C320.839 60.4732 319.634 59.9836 318.209 59.4904C314.775 58.2409 310.807 56.6371 310.986 52.0448C311.209 47.142 315.937 45.7573 320.171 45.7573H320.167Z" fill="#666666"/>
<path d="M137.728 45.936V50.4151C137.728 50.6453 138.035 50.722 138.145 50.5174C139.8 47.4887 142.233 45.6803 145.309 45.6803C149.722 45.6803 149.722 51.9678 146.781 51.9678C144.684 52.0116 144.016 50.0936 141.787 50.0936C140.092 50.0936 138.799 51.3869 137.728 53.1259V61.9525C137.728 65.3355 139.891 66.4096 140.804 66.5667C140.936 66.5886 141.027 66.7055 141.027 66.8371V67.1549C141.027 67.3083 140.903 67.4325 140.749 67.4325H128.646C128.492 67.4325 128.368 67.3083 128.368 67.1549V66.8407C128.368 66.7019 128.474 66.585 128.613 66.5667C129.639 66.4169 131.711 65.3392 131.711 61.8173V53.3451C131.711 50.6854 131.214 49.2643 129.029 49.0816C128.883 49.0706 128.766 48.9501 128.766 48.8039V48.709C128.766 48.5774 128.861 48.4642 128.986 48.4386C132.376 47.7043 134.937 46.8092 137.33 45.684C137.513 45.5963 137.724 45.7314 137.724 45.9324L137.728 45.936Z" fill="#666666"/>
<path d="M158.585 45.8413C158.775 45.7281 159.013 45.8596 159.013 46.0788V61.8979C159.013 65.2883 161.183 66.472 162.096 66.6437C162.224 66.6693 162.312 66.7862 162.312 66.914V67.2355C162.312 67.389 162.187 67.5132 162.034 67.5132H149.93C149.777 67.5132 149.653 67.389 149.653 67.2355V66.9213C149.653 66.7825 149.759 66.6656 149.897 66.6473C150.924 66.4975 152.996 65.4198 152.996 61.8979V53.4257C152.996 50.7661 152.499 49.3449 150.314 49.1622C150.168 49.1513 150.051 49.0307 150.051 48.8846V48.8042C150.051 48.6654 150.153 48.5521 150.288 48.5302C153.46 48.0553 156.39 47.1456 158.585 45.8413V45.8413Z" fill="#666666"/>
<path d="M158.892 41.0699C158.892 42.9112 157.383 44.4639 155.498 44.4639C153.613 44.4639 152.148 42.9149 152.148 41.0699C152.148 39.225 153.613 37.6357 155.498 37.6357C157.383 37.6357 158.892 39.1848 158.892 41.0699Z" fill="#666666"/>
<path d="M169.443 45.8411L177.276 63.1509C177.353 63.3189 177.583 63.3299 177.674 63.1691C178.865 61.0356 180.443 57.0388 180.443 54.1818C180.4 50.8828 178.032 50.6673 178.076 48.3802C178.076 45.6037 183.878 45.2749 183.878 49.4032C183.878 51.4052 182.986 54.5837 181.561 57.795C180.067 61.1379 178.266 64.309 176.206 67.3888C176.154 67.4655 176.067 67.513 175.972 67.513H172.735C172.625 67.513 172.527 67.4509 172.483 67.3523L165.735 52.8447C164.621 50.4444 163.835 49.3192 161.672 49.1584C161.526 49.1475 161.409 49.0305 161.409 48.8808V48.7821C161.409 48.6542 161.501 48.5446 161.625 48.5118C164.591 47.7847 166.729 46.886 169.07 45.706C169.213 45.6365 169.385 45.695 169.45 45.8375L169.443 45.8411Z" fill="#666666"/>
</g>
<defs>
<linearGradient id="paint0_linear_22_70" x1="155.98" y1="12.3398" x2="155.98" y2="42.6556" gradientUnits="userSpaceOnUse">
<stop offset="0.13" stop-color="#FFDA81"/>
<stop offset="0.39" stop-color="#FFCD3F"/>
<stop offset="0.74" stop-color="#F1B21D"/>
<stop offset="0.92" stop-color="#DF991E"/>
</linearGradient>
<clipPath id="clip0_22_70">
<rect width="256.329" height="56" fill="white" transform="translate(72 12)"/>
</clipPath>
</defs>
</svg>
