<svg width="64" height="64" viewBox="0 0 64 64" fill="none" xmlns="http://www.w3.org/2000/svg">
<path d="M8.04323 32.0346C7.2981 33.3886 7.79041 35.0908 9.14273 35.8383C21.2561 42.5497 36.0916 41.9858 47.6602 34.3742L45.1881 40.9519C44.6432 42.4012 45.3751 44.018 46.8233 44.563C48.2723 45.1087 49.8886 44.3766 50.4334 42.9273L54.2292 32.8331C54.8917 31.3565 55.134 29.725 54.9295 28.1188C54.7334 27.047 54.2712 24.5392 42.884 20.1822C42.5668 20.0617 42.2299 20 41.8896 20C40.5429 20.0049 39.3908 20.9681 39.1457 22.2928C38.9006 23.6174 39.6324 24.9287 40.8881 25.4149C42.9183 26.1945 44.9072 27.0758 46.8478 28.0558C36.8214 35.9833 23.0181 37.1181 11.832 30.9348C10.4817 30.1993 8.79047 30.6903 8.04323 32.0346Z" fill="white"/>
</svg>
