<svg width="490" height="914" viewBox="0 0 490 914" fill="none" xmlns="http://www.w3.org/2000/svg">
<path fill-rule="evenodd" clip-rule="evenodd" d="M232.178 591C232.266 631.16 242.141 665.269 258.609 698.029C261.472 703.724 265.042 705.367 271.31 705.34C308.701 705.176 344.681 698.864 378.762 684.335C413.661 669.46 442.621 647.865 462.73 617.107C482.839 586.363 487.97 553.556 475.332 519.098C455.692 465.551 397.826 434.943 339.59 447.298C309.101 453.766 285.433 470.1 266.989 493.083C242.826 523.19 232.401 557.528 232.178 591ZM441.287 903.725C431.841 895.633 422.216 887.715 412.975 879.422C383.043 852.541 352.741 825.995 323.568 798.415C297.994 774.238 276.405 747.01 259.163 717.009C256.755 712.821 253.489 712.341 249.233 711.996C205.017 708.429 163.807 696.365 126.159 674.19C79.2633 646.562 46.5493 608.06 25.3521 560.706C6.70972 519.06 -1.55583 475.566 0.240235 430.589C3.64176 345.306 29.7213 266.532 80.8615 195.438C109.342 155.838 143.797 120.903 181.005 88.2557C216.501 57.1193 255.266 29.8635 295.495 4.33646C298.141 2.65876 300.996 1.18565 303.951 0.0705962C304.834 -0.26699 306.681 0.67075 307.521 1.51301C308.034 2.03133 307.887 3.83861 307.301 4.43876C305.754 6.0278 303.903 7.39861 302.008 8.63643C262.117 34.5931 223.253 61.7398 187.742 92.8523C147.492 128.108 110.764 166.143 80.6818 209.446C55.9951 244.984 38.9179 283.667 26.5031 324.242C18.3035 351.038 12.556 378.277 9.99757 406.024C3.74068 473.858 15.866 538.228 55.1521 596.518C90.7251 649.301 142.265 682.432 206.996 697.698C219.726 700.699 232.893 702.083 245.876 704.14C247.239 704.351 248.705 704.034 251.282 703.904C249.809 700.586 248.694 697.893 247.426 695.26C230.789 660.646 221.841 624.531 223.978 586.482C226.504 541.525 242.595 501.578 278.208 470.172C313.045 439.451 354.658 428.956 400.803 442.063C447.526 455.338 476.314 485.905 486.845 530.115C495.976 568.457 484.807 603.048 459.574 633.867C431.204 668.523 393.34 690.203 348.911 702.561C325.764 708.999 302.111 712.491 277.919 712.644C275.041 712.661 272.168 712.883 267.718 713.084C269.961 717.261 271.457 720.654 273.487 723.75C288.024 745.912 304.801 766.515 323.392 785.88C350.568 814.2 380.683 839.727 410.384 865.653C421.494 875.351 432.556 885.093 443.666 894.791C445.928 896.769 448.318 898.62 452.122 901.74C452.844 891.149 452.426 882.348 451.906 873.513C451.444 865.629 451.364 857.718 451.415 849.82C451.429 846.973 451.144 842.823 455.337 842.68C459.743 842.53 459.328 846.564 459.446 849.513C460.12 866.672 460.773 883.831 461.385 900.99C461.462 903.166 461.385 905.362 461.117 907.524C460.457 912.901 459.127 914.282 453.262 913.955C441.874 913.321 430.5 912.335 419.137 911.326C405.179 910.088 391.243 908.649 377.285 907.374C374.122 907.084 371.087 906.518 371.365 902.893C371.655 899.094 375.086 899.139 378.037 899.418C391.144 900.666 404.237 902.02 417.334 903.374C425.075 904.175 432.802 905.048 440.539 905.887C440.789 905.167 441.034 904.444 441.287 903.725Z" fill="#9F6EDB"/>
</svg>
