<svg width="64" height="64" viewBox="0 0 64 64" fill="none" xmlns="http://www.w3.org/2000/svg">
<path d="M55.9568 32.0346C56.7019 33.3886 56.2096 35.0908 54.8573 35.8383C42.7439 42.5497 27.9084 41.9858 16.3398 34.3742L18.8119 40.9519C19.3568 42.4012 18.6249 44.018 17.1767 44.563C15.7277 45.1087 14.1114 44.3766 13.5666 42.9273L9.77083 32.8331C9.10833 31.3565 8.86602 29.725 9.07052 28.1188C9.26661 27.047 9.72881 24.5392 21.116 20.1822C21.4332 20.0617 21.7701 20 22.1104 20C23.4571 20.0049 24.6092 20.9681 24.8543 22.2928C25.0994 23.6174 24.3676 24.9287 23.1119 25.4149C21.0817 26.1945 19.0928 27.0758 17.1522 28.0558C27.1786 35.9833 40.9819 37.1181 52.168 30.9348C53.5183 30.1993 55.2095 30.6903 55.9568 32.0346Z" fill="white"/>
</svg>
