<svg width="24" height="24" viewBox="0 0 24 24" fill="none" xmlns="http://www.w3.org/2000/svg">
<path fill-rule="evenodd" clip-rule="evenodd" d="M11.63 11.8248C10.8322 11.1306 7.65965 11.2535 7.76902 9.94723C8.37656 7.90951 14.3598 5.10287 16.2944 3.50809C16.4498 3.41253 16.6631 3.14455 16.823 3.36783C16.9439 3.54929 17.069 3.64519 16.9155 3.82656C16.4197 4.50384 15.8934 5.15297 15.4968 5.89571C15.0673 6.54595 14.8251 7.27649 14.5584 7.99923C14.4975 8.27147 13.9827 8.63706 14.2742 8.88142C15.6536 9.74109 17.1975 10.3364 18.6355 11.1044C18.9183 11.3118 19.5602 11.3939 19.4954 11.8316C19.3942 12.3774 18.6379 12.8286 18.172 13.125C17.564 13.7069 16.784 14.0448 16.077 14.5003C13.3207 16.2247 10.4014 17.6642 7.58056 19.2803C6.69133 19.7707 5.77913 20.2265 4.89188 20.7155C4.21251 20.7756 4.56629 19.9965 4.83925 19.6991C6.62599 16.6988 9.16332 14.2495 11.63 11.8248Z" fill="#9F6EDB"/>
</svg>
