<svg width="1210" height="409" viewBox="0 0 1210 409" fill="none" xmlns="http://www.w3.org/2000/svg">
<path d="M563.106 408.662C560.756 408.662 558.426 408.572 556.106 408.392C554.996 408.302 553.896 408.192 552.796 408.062C510.596 403.172 473.515 367.872 466.515 325.982C465.295 318.692 464.715 310.852 464.145 303.282C462.455 280.612 460.855 259.202 444.025 248.742C423.925 236.252 397.355 250.742 378.595 265.072C362.715 277.222 341.925 293.172 320.025 293.172C315.615 293.179 311.229 292.505 307.025 291.172C275.475 281.172 268.645 239.342 264.965 216.852C257.905 173.592 243.295 112.122 198.185 77.852C164.895 52.532 118.425 46.522 79.7955 62.542C41.1655 78.562 12.5855 115.702 6.98548 157.152C6.86748 158.433 6.05648 159.547 4.87348 160.051C3.69048 160.556 2.32547 160.371 1.31947 159.569C0.312467 158.767 -0.17251 157.478 0.0554902 156.212C5.97549 112.342 36.2155 73.042 77.0555 56.082C117.895 39.122 167.135 45.482 202.375 72.282C249.475 108.112 264.575 171.332 271.825 215.772C274.185 230.202 277.145 245.322 282.825 258.092C289.155 272.312 297.745 280.972 309.075 284.552C332.135 291.832 356.506 273.202 374.296 259.602C403.706 237.112 429.075 231.332 447.665 242.882C467.525 255.222 469.325 279.432 471.075 302.882C471.635 310.302 472.205 317.972 473.365 324.952C479.855 363.882 514.366 396.682 553.536 401.232C554.536 401.352 555.536 401.452 556.536 401.532C581.296 403.532 607.606 394.082 626.906 376.392C631.796 371.912 635.775 366.782 639.985 361.392C643.476 356.697 647.248 352.216 651.276 347.972C654.462 344.931 657.181 341.437 659.346 337.602C667.426 322.372 672.035 304.902 676.495 288.002C679.315 277.292 682.236 266.222 686.016 255.782C697.596 223.782 714.235 201.642 735.475 189.902C748.345 182.95 763.106 180.331 777.576 182.432C792.986 184.722 805.685 192.292 813.335 203.752C815.005 206.252 816.436 208.912 817.816 211.472C820.326 216.162 822.706 220.582 826.326 223.762C836.396 232.602 853.496 228.362 863.146 218.862C872.796 209.362 877.685 195.862 882.455 182.762L883.585 179.692C898.375 139.404 918.006 101.06 942.036 65.502C958.596 40.992 981.945 11.652 1015.72 2.29201C1034.42 -2.89799 1056.15 0.872007 1072.41 12.122C1083.01 19.452 1090.11 29.312 1092.87 40.362C1107.37 28.052 1126.22 20.692 1146.66 19.462C1169.47 18.102 1191.22 24.552 1207.9 37.632C1209.42 38.825 1209.69 41.026 1208.5 42.547C1207.3 44.069 1205.1 44.335 1203.58 43.142C1172.01 18.392 1121.36 21.422 1092.98 49.772C1092.02 50.758 1090.58 51.093 1089.28 50.627C1087.99 50.162 1087.09 48.982 1086.98 47.612C1085.98 36.002 1079.33 25.452 1068.39 17.872C1054.01 7.93201 1034.05 4.46201 1017.55 9.04201C985.976 17.782 963.686 45.902 947.796 69.422C924.076 104.509 904.715 142.346 890.115 182.102L888.995 185.162C883.995 198.982 878.755 213.272 867.995 223.852C856.155 235.512 835.076 240.852 821.646 229.022C817.076 225.022 814.285 219.812 811.585 214.792C810.225 212.252 808.945 209.862 807.455 207.632C792.995 185.982 760.286 184.152 738.806 196.022C719.086 206.922 703.516 227.822 692.536 258.162C688.866 268.312 685.985 279.232 683.195 289.782C678.645 307.072 673.936 324.942 665.466 340.892C662.996 345.332 659.874 349.376 656.206 352.892C652.373 356.942 648.783 361.216 645.456 365.692C641.256 371.112 636.906 376.692 631.576 381.602C612.846 398.752 587.636 408.662 563.106 408.662Z" fill="#9F6EDB"/>
</svg>
