<svg width="78" height="82" viewBox="0 0 78 82" fill="none" xmlns="http://www.w3.org/2000/svg">
<path d="M74.6059 32.4738L74.9324 32.5314C76.5603 33.0017 77.4998 34.7023 77.0307 36.3304L65.0675 77.5881C64.5965 79.227 62.8861 80.1723 61.2472 79.7013C59.6083 79.2303 58.663 77.5199 59.134 75.881L71.0993 34.6112C71.5491 33.1069 73.0622 32.1842 74.6059 32.4738Z" fill="#EB81FD"/>
<path d="M61.9901 22.6408L62.2713 22.8165C63.6044 23.8623 63.8385 25.7911 62.7937 27.1248L36.2461 60.8969C35.1955 62.24 33.2555 62.4757 31.9124 61.4251C30.5693 60.3744 30.3335 58.4345 31.3842 57.0913L57.9382 23.3089C58.9188 22.0827 60.6673 21.7939 61.9901 22.6408Z" fill="#EB81FD"/>
<path d="M47.2862 6.93575L47.4315 7.23376C48.0079 8.82714 47.1843 10.5869 45.5915 11.1643L5.18143 25.7365C3.57865 26.3188 1.80857 25.4907 1.22631 23.8879C0.644052 22.2851 1.4721 20.5151 3.07487 19.9328L43.4959 5.35517C44.9773 4.83488 46.6132 5.51661 47.2862 6.93575Z" fill="#EB81FD"/>
</svg>
