<svg width="78" height="82" viewBox="0 0 78 82" fill="none" xmlns="http://www.w3.org/2000/svg">
<path d="M3.02837 48.639L2.70183 48.5814C1.07401 48.1111 0.134457 46.4105 0.60357 44.7824L12.5668 3.52468C13.0378 1.88577 14.7482 0.940467 16.3871 1.4115C18.026 1.88253 18.9713 3.59286 18.5003 5.23177L6.53493 46.5016C6.08515 48.0059 4.57208 48.9286 3.02837 48.639Z" fill="#EB81FD"/>
<path d="M15.6442 58.472L15.363 58.2963C14.0299 57.2504 13.7958 55.3217 14.8407 53.9879L41.3882 20.2159C42.4389 18.8728 44.3788 18.637 45.7219 19.6877C47.0651 20.7384 47.3008 22.6783 46.2502 24.0214L19.6961 57.8039C18.7156 59.0301 16.967 59.3189 15.6442 58.472Z" fill="#EB81FD"/>
<path d="M30.3481 74.177L30.2028 73.879C29.6265 72.2856 30.45 70.5259 32.0429 69.9485L72.4529 55.3763C74.0557 54.794 75.8258 55.6221 76.408 57.2249C76.9903 58.8276 76.1622 60.5977 74.5595 61.18L34.1384 75.7576C32.657 76.2779 31.0212 75.5962 30.3481 74.177Z" fill="#EB81FD"/>
</svg>
