<svg width="66" height="12" viewBox="0 0 66 12" fill="none" xmlns="http://www.w3.org/2000/svg">
<g clip-path="url(#clip0_235_38)">
<path d="M28.3044 1.38131C28.8237 0.899556 29.6086 0.875894 30.1537 1.30124L30.2847 1.41692L36.7229 7.83605C37.2816 8.39312 37.283 9.29764 36.7259 9.85635C36.2117 10.3721 35.4014 10.4129 34.8404 9.97799L34.7056 9.85935L29.24 4.41L22.9508 10.2458C22.4481 10.7121 21.6938 10.7507 21.1496 10.3617L21.0067 10.245L15.0643 4.72286L8.4301 10.6379C7.89681 11.1132 7.10366 11.1167 6.56763 10.6712L6.43927 10.5505L0.38827 4.12104C-0.152456 3.5465 -0.125041 2.64239 0.449504 2.10167C0.979852 1.60254 1.79101 1.5875 2.33796 2.04004L2.46888 2.1629L7.56571 7.57999L14.1346 1.72619C14.6389 1.27669 15.3808 1.24649 15.9168 1.63098L16.0575 1.74612L21.9786 7.24857L28.3044 1.38131Z" fill="#DCAFFF"/>
<path d="M56.8044 1.38131C57.3237 0.899556 58.1086 0.875894 58.6537 1.30124L58.7847 1.41692L65.2229 7.83605C65.7816 8.39312 65.783 9.29764 65.2259 9.85635C64.7117 10.3721 63.9014 10.4129 63.3404 9.97799L63.2056 9.85935L57.74 4.41L51.4508 10.2458C50.9481 10.7121 50.1938 10.7507 49.6496 10.3617L49.5067 10.245L43.5643 4.72286L36.9301 10.6379C36.3968 11.1132 35.6037 11.1167 35.0676 10.6712L34.9393 10.5505L28.8883 4.12104C28.3475 3.5465 28.375 2.64239 28.9495 2.10167C29.4799 1.60254 30.291 1.5875 30.838 2.04004L30.9689 2.1629L36.0657 7.57999L42.6346 1.72619C43.1389 1.27669 43.8808 1.24649 44.4168 1.63098L44.5575 1.74612L50.4786 7.24857L56.8044 1.38131Z" fill="#DCAFFF"/>
</g>
<defs>
<clipPath id="clip0_235_38">
<rect width="66" height="12" fill="white"/>
</clipPath>
</defs>
</svg>
