<svg width="1429" height="1072" viewBox="0 0 1429 1072" fill="none" xmlns="http://www.w3.org/2000/svg">
<path fill-rule="evenodd" clip-rule="evenodd" d="M668.182 208.297C647.778 200.906 628.101 189.846 607.932 182.589C566.59 174.868 525.05 165.177 482.737 166.327C389.266 186.599 547.51 381.25 578.018 417.218C637.732 494.994 704.572 566.409 774.952 634.491C794.294 656.593 825.737 703.404 776.479 711.872C765.63 714.411 752.805 712.662 741.792 709.587C685.989 692.539 642.42 652.196 600.723 613.302C555.385 571.978 509.245 531.545 463.316 490.899C385.373 428.064 303.583 310.275 198.454 307.023C73.2493 305.48 104.822 466.469 121.585 547.337C147.951 658.327 203.021 758.358 243.944 864.052C248.347 875.461 248.876 888.834 248.95 901.321C249.035 915.782 235.376 926.381 213.322 930.658C148.901 945.725 93.9153 913.015 51.0103 868.012C52.5733 867.813 54.3953 866.987 55.6593 867.51C70.3043 873.566 84.6333 880.472 99.5253 885.814C110.312 889.683 122.031 890.899 132.943 894.489C145.708 897.879 157.233 906.277 170.24 908.25C167.706 907.02 165.136 905.874 162.521 904.827C178.264 904.296 194.332 908.214 209.818 906.088C213.137 905.697 218.843 890.478 216.652 884.623C166.69 757.939 -47.3167 371.778 134.346 289.908C182.873 272.151 241.973 263.461 287.898 291.358C338.907 329.206 389.965 367.752 435.751 411.967C497.834 470.518 558.534 530.465 624.759 584.429C668.751 620.128 712.751 659.271 764.057 683.284C763.574 680.2 764.191 676.117 762.437 674.19C710.934 617.647 655.968 564.118 605.67 506.541C538.58 422.605 455.286 342.891 424.552 237.235C416.799 198.835 416.547 145.87 467.594 142.363C551.615 130.252 639.153 147.883 713.586 188.131C757.253 204.637 793.676 234.842 836.957 252.338C862.424 265.667 887.44 279.873 913.081 292.851C938.208 302.517 963.264 312.679 987.452 324.705C999.855 330.057 1012.63 334.566 1025.35 339.131C1025.62 339.231 1028.64 334.848 1028.07 333.684C1020.51 318.226 1014.17 301.822 1004.36 287.874C971.952 241.765 933.891 199.594 915.384 144.487C884.415 35.7749 1047.41 10.3729 1120.67 48.8489C1130.11 52.5959 1140.11 55.1919 1149.11 59.7849C1179.7 73.5159 1207 96.2618 1240.21 102.543C1294.76 126.519 1352.03 157.318 1412.89 151.861C1411.63 154.069 1410.84 157.656 1409.04 158.268C1394.68 163.153 1380.38 168.946 1365.55 171.418C1356.62 172.908 1346.82 168.544 1337.33 167.639C1332.67 167.194 1327.59 169.874 1323.09 169.024C1221.83 159.239 1024.13 -14.7981 949.115 96.4749C927.826 148.234 988.468 198.118 1010.57 241.451C1028.62 270.392 1046.74 299.463 1062.02 329.887C1070.73 347.223 1056.69 362.382 1037.23 369.299C1007.65 379.816 985.314 363.383 960.911 353.815C942.865 346.74 925.088 338.942 907.42 330.958C887.636 318.725 865.524 311.174 844.735 301.11C790.429 269.875 735.432 239.869 679.137 212.79C680.845 212.907 682.554 213.024 684.262 213.141C678.96 210.929 674.241 205.601 668.182 208.297Z" fill="#9F6EDB"/>
<path fill-rule="evenodd" clip-rule="evenodd" d="M315.04 1034.65C247.364 1029.35 181.917 1016.81 119.907 988.284C98.8536 980.115 78.5396 969.993 58.1406 960.231C51.0166 956.542 49.2946 948.551 51.8556 941.061C120.441 960.654 189.507 980.917 260.919 987.471C286.709 987.897 389.016 998.877 390.42 962.35C391.521 952.628 383.815 940.207 376.873 931.595C317.77 864.834 262.186 794.501 216.153 718.104C111.827 550.293 219.48 407.033 396.023 531.44C527.145 620.579 644.816 728.716 782.694 808.208C849.429 845.186 917.857 890.843 997.247 888.733C1025.35 886.627 1042.36 854.213 1025.51 829.676C976.097 755.583 919.681 687.03 854.899 625.797C787.725 556.407 714.981 492.847 644.045 427.422C608.633 389.082 532.525 330.014 557.164 272.094C560 265.898 569.167 259.969 576.234 258.808C641.026 246.173 710.648 243.269 769.758 276.553C833.805 312.542 895.706 354.753 950.815 403.44C1004.98 439.638 1060.14 474.547 1115.64 508.65C1144.95 524.674 1212.8 565.85 1225.98 512.855C1232.93 410.951 1049.66 251.185 1056.47 149.042C1062.38 79.7184 1263.24 185.799 1293.86 206.384C1307.73 214.218 1323.15 223.543 1325.37 242.412C1323.92 270.245 1163.38 175.271 1141.23 168.856C1126.14 162.05 1108.28 161.077 1091.54 158.351C1078.22 156.182 1079.6 166.513 1083.09 172.699C1112.56 224.796 1142.93 276.411 1175.45 326.649C1210.26 389.56 1270.76 456.734 1251.79 533.392C1242.66 564.401 1224.18 582.064 1199.84 577.824C1135.07 568.154 1073.87 538.44 1025.35 494.774C1026.41 497.026 1027.66 499.106 1029.42 500.88C949.338 444.361 872.734 381.213 793.491 323.633C733.962 294.339 670.821 279.923 604.624 280.114C607.174 280.46 609.685 281.037 612.211 281.52C598.289 283.122 565.113 285.549 576.852 306.824C612.613 365.543 661.012 413.918 711.714 459.725C807.789 542.027 897.641 630.909 983.567 723.691C1021.32 768.084 1078.9 837.303 1044.24 897.267C955.672 1007.56 597.152 714.055 509.221 650.927C439.006 603.694 376.833 535.32 291.335 517.674C228.181 502.243 193.003 561.828 205.324 619.133C230.296 738.015 330.96 819.528 401.502 912.39C427.76 944.091 441.949 995.928 392.67 1014.56C368.658 1027.71 342.893 1033.95 315.04 1034.65Z" fill="#9F6EDB"/>
<path fill-rule="evenodd" clip-rule="evenodd" d="M358.913 763.98C364.472 778.569 377.141 787.88 386.04 800.067C398.441 817.963 409.938 836.486 421.792 854.761C434.446 874.27 448.194 893.173 459.459 913.455C474.484 940.509 497.614 964.325 498.947 997.384C503.826 1057.67 465.908 1068 418.454 1051.48C428.454 1046.53 441.163 1049.12 451.657 1045.33C513.58 1017.1 430.993 938.638 410.699 904.552C356.274 817.454 261.945 719.615 287.964 609.11C339.421 546.091 484.892 724.558 525.473 759.742C559.464 790.618 595.15 819.996 631.686 847.839C689.048 895.986 756.9 926.552 827.149 950.578C887.45 968.911 948.269 990.685 1011.75 993.968C1062.79 991.784 1135.49 985.978 1103.82 916.802C1063.61 818.3 1005.09 729.358 950.029 638.788C934.253 615.29 918.472 591.641 902.344 568.398C887.214 546.366 809.192 460.232 827.149 438.315C850.432 421.949 966.051 515.292 990.542 532.367C1063.86 591.337 1147.01 636.558 1235.24 668.993C1287.59 694.613 1348.05 660.7 1327.35 597.883C1313.93 560.365 1300.83 522.696 1286.1 485.687C1265.54 440.631 1237.22 397.933 1220.93 351.067C1208.99 312.505 1212.58 250.949 1275.77 281.398C1310.05 299.074 1343.1 319.114 1377.32 336.904C1385.02 340.904 1395.5 339.2 1404.42 341.302C1411.34 342.933 1419 345.1 1424.01 349.606C1429.96 363.234 1419.44 370.4 1405.86 368.181C1389.54 365.413 1372.09 363.992 1357.62 356.88C1321.22 337.838 1288.87 310.654 1250.48 294.909C1249.18 294.314 1240.94 302.39 1241.58 305.135C1252.03 381.208 1302.98 440.515 1331.06 510.085C1342.14 536.296 1352.23 563.198 1359.61 590.642C1377.28 644.006 1340.89 713.028 1278.48 701.593C1235.11 700.387 1196.93 681.989 1158.26 665.202C1113.82 649.223 1075 622.066 1035.47 596.832C980.504 560.558 928.396 520.276 877.164 478.953C872.375 475.82 867.365 471.679 861.801 470.311C897.869 521.117 938.456 569.91 975.381 620.43C1018.24 695.179 1073.45 762.947 1109.56 841.44C1121.56 868.495 1134.72 895.12 1145.08 922.791C1158.84 959.524 1129.9 1013.97 1093.96 1016.89C984.365 1031.15 878.655 995.965 775.835 962.183C698.039 938.164 629.889 892.55 566.789 842.142C545.4 824.06 522.717 806.379 505.452 784.237C446.357 732.448 393.702 673.923 328.39 629.371C326.936 628.242 323.05 627.571 322.726 628.12C321.157 630.787 318.952 634.319 319.608 636.865C331.153 679.689 340.521 723.408 358.913 763.98Z" fill="#9F6EDB"/>
<path fill-rule="evenodd" clip-rule="evenodd" d="M541.846 41.474C584.809 50.727 628.393 57.831 670.514 69.998C698.015 77.942 722.768 94.9579 749.886 104.779C780.476 115.857 812.323 123.475 843.721 132.245C855.286 125.448 836.194 107.899 850.799 90.362C854.526 92.702 859.663 94.169 861.744 97.528C872.7 115.214 888.98 131.33 876.414 155.707C868.977 170.134 855.699 167.159 846.81 164.59C706.275 126.539 627.175 54.5989 471.432 88.3969C432.602 94.4589 354.179 120.049 356.067 168.619C356.125 169.034 354.902 169.627 354.257 170.114C353.116 170.723 353.462 173.967 353.687 175.145C364.432 208.447 382.568 240.818 375.954 276.893C375.701 279.469 365.529 284.356 362.975 282.886C345.611 272.892 329.394 260.929 312.184 250.645C242.529 199.157 150.772 186.623 72.4092 226.89C28.0272 247.072 36.6582 295.273 22.6062 333.172C22.0642 334.884 15.0922 336.163 11.8842 335.147C-2.40981 330.619 -0.124806 316.863 0.905194 307.478C6.80319 198.656 41.6412 179.969 144.194 165.2C225.093 155.195 288.153 210.581 352.1 251.102C351.86 249.368 352.028 247.443 351.317 245.93C321.738 195.8 308.875 140.504 359.748 98.184C406.562 57.578 469.584 56.102 527.067 47.739C524.083 47.314 521.082 47.4259 518.078 47.4799C525.508 45.7079 533.201 46.682 540.779 46.473C541.135 44.807 541.491 43.14 541.846 41.474Z" fill="#9F6EDB"/>
<path fill-rule="evenodd" clip-rule="evenodd" d="M1229.43 993.652C1230.54 1010.11 1230.15 1025.98 1210.3 1031.23C1207.2 1032.05 1202.62 1027.33 1198.73 1025.17C1204.59 1018.87 1210.88 998.588 1208.35 991.791C1199.92 969.447 1188.71 948.066 1177.47 926.892C1140.03 872.432 1122.58 809.313 1103.84 746.734C1099.76 732.939 1098.66 716.809 1101.84 703.047C1103.12 697.481 1120.76 690.606 1128.71 692.728C1169.38 706.47 1204.46 735.651 1243.68 752.945C1269.34 764.426 1296.39 773.059 1323.34 781.317C1370.69 795.144 1387.49 740.626 1401.11 706.805C1397.17 711.229 1395.2 717.125 1392.14 722.189C1425.92 642.4 1364.7 570.903 1338.56 498.867C1333.51 482.519 1300.9 404.524 1311.88 395.541C1319.06 389.849 1327.24 389.144 1333.71 398.37C1338.14 405.911 1347.43 410.723 1348.56 419.89C1342.39 423.224 1331.47 416.409 1337.13 428.081C1355.56 466.783 1375.88 504.757 1391.58 544.548C1405.89 580.822 1417.6 618.572 1425.68 656.684C1437.4 741.23 1406.89 849.201 1297.85 811.264C1240.44 788.741 1187.85 756.236 1134.36 725.94C1133.27 725.331 1128.68 728.135 1128.79 728.627C1140.59 824.636 1208.36 901.125 1229.43 993.652Z" fill="#9F6EDB"/>
<path fill-rule="evenodd" clip-rule="evenodd" d="M459.908 845.373C478.024 801.36 518.211 839.21 541.411 857.1C606.79 914.77 671.577 974.773 750.163 1014.69C787.2 1031.83 825.338 1046.26 866.092 1052.48C868.569 1052.86 870.403 1057.45 872.536 1060.08C862.428 1068.66 832.508 1065.45 818.186 1067.13C745.903 1065.29 689.585 1011.59 630.419 976.328C587.124 940.42 545.71 901.223 501.582 866.001C499.115 863.938 495.415 863.35 492.287 862.078C492.708 865.417 492.236 869.217 493.686 872.026C511.249 906.055 527.739 940.744 547.258 973.629C566.263 1007.69 592.68 1037.65 611.215 1071.83C602.108 1074.24 563.512 1033.91 557.161 1025.31C515.769 970.119 476.903 913.268 459.908 845.373Z" fill="#9F6EDB"/>
<path fill-rule="evenodd" clip-rule="evenodd" d="M369.669 11.4681C392.488 17.6141 415.391 23.4791 438.03 30.2291C441.165 31.1641 442.996 36.4722 445.431 39.7562C393.402 47.3732 340.414 43.0512 296.234 76.6532C292.68 78.4932 287.081 78.7132 285.414 81.4812C277.138 95.2182 266.971 108.781 262.917 123.869C256.955 146.058 247.756 151.764 223.454 149.114C152.28 143.481 94.0725 85.8082 20.7925 101.468C15.6045 102.399 9.31253 115.1 5.53353 102.806C3.63953 96.6421 7.64653 85.1491 12.8775 81.1231C20.9795 74.8881 32.1295 71.3932 42.4885 69.5442C96.0195 55.6722 137.414 80.2331 185.647 98.4961C200.906 103.477 217.263 105.122 233.177 108.005C233.835 108.125 235.744 105.716 235.739 104.49C238.575 41.8671 311.765 18.3641 369.669 11.4681Z" fill="#9F6EDB"/>
<path fill-rule="evenodd" clip-rule="evenodd" d="M1330.66 1059.66C1330.08 1057.13 1330.07 1054.27 1328.81 1052.13C1308.35 1019.88 1284.69 989.618 1264.79 957.028C1222.67 894.294 1204.83 816.928 1307.38 853.318C1324.19 857.835 1340.11 867.633 1357 869.308C1378.95 869.968 1396.98 854.356 1420.97 862.293C1403.45 901.376 1361.7 907.425 1326.24 893.986C1310.08 891.427 1278.86 867.903 1266.69 873.689C1265.23 874.35 1263.98 878.599 1264.69 880.436C1274.94 907.065 1284.38 934.098 1296.41 959.918C1303.54 980.618 1354.33 1044.02 1336.11 1060.23C1334.29 1060.04 1332.48 1059.85 1330.66 1059.66Z" fill="#9F6EDB"/>
<path fill-rule="evenodd" clip-rule="evenodd" d="M186.397 432.56C187.373 432.883 187.927 433.271 188.201 433.127C191.293 430.747 202.032 427.433 202.394 424.252C196.813 426.994 191.546 428.785 186.397 432.56ZM262.715 374.308C295.403 374.088 322.294 405.402 345.224 442.171C346.326 443.939 344.085 447.791 343.4 450.672C306.871 427.182 268.688 416.684 225.261 424.431C189.199 429.381 165.231 454.221 136.623 472.937C134.018 464 126.625 452.499 129.764 446.637C160.502 399.124 193.413 374.137 262.715 374.308Z" fill="#9F6EDB"/>
<path fill-rule="evenodd" clip-rule="evenodd" d="M1177.55 22.9335C1228.42 34.5685 1277.19 47.3345 1329.02 49.7325C1334.58 50.0645 1340.52 43.3095 1346.36 39.9425C1351.37 37.0595 1356.48 34.3665 1361.55 31.5885C1410.18 139.03 1214.4 83.9965 1175.55 47.1625C1169.58 43.0945 1157.26 43.2445 1162.43 31.4945C1164.22 27.4215 1171.91 25.9425 1177.55 22.9335Z" fill="#9F6EDB"/>
<path fill-rule="evenodd" clip-rule="evenodd" d="M115.402 795.368C115.402 810.02 115.819 824.694 115.037 839.305C114.887 842.096 110.013 844.635 107.319 847.291C103.918 842.162 98.686 837.442 97.433 831.833C91.918 807.156 88.604 781.961 82.526 757.441C71.761 716.428 54.265 674.069 18.374 648.811C16.551 646.712 15.679 640.667 17.014 639.555C20.554 636.608 27.439 632.491 29.615 633.933C87.393 662.569 112.436 735.404 115.402 795.368Z" fill="#9F6EDB"/>
<path fill-rule="evenodd" clip-rule="evenodd" d="M716.021 324.635C747.061 321.201 821.056 362.304 813.591 395.944C776.34 383.917 751.001 342.658 705.392 360.794C695.478 364.53 685.877 378.686 677.181 384.244C672.526 380.106 664.621 375.371 664.681 370.875C665.062 342.66 684.194 326.171 716.021 324.635Z" fill="#9F6EDB"/>
<path fill-rule="evenodd" clip-rule="evenodd" d="M1414.31 1051.44C1385.63 1032.92 1362.34 1009.21 1346.48 979.32C1341.04 969.028 1354.44 956.088 1372.02 950.289C1380.18 947.599 1388.25 944.401 1395.88 940.48C1398.58 939.087 1399.34 934.279 1401.91 932.129C1404.12 930.28 1409.74 928.514 1410.26 929.245C1416.72 938.418 1427.39 948.044 1427.41 957.571C1427.37 977.511 1400.01 987.929 1380.61 989.989C1388.6 1010.12 1408.84 1022.41 1422.29 1038.95C1427.2 1045.27 1419.18 1046.49 1414.31 1051.44Z" fill="#9F6EDB"/>
<path fill-rule="evenodd" clip-rule="evenodd" d="M777.915 64.3423C749.663 57.5033 721.176 51.4703 693.309 43.3163C685.31 40.9763 678.845 32.7913 672.233 26.6823C670.222 24.8243 670.075 20.9473 669.074 17.9943C687.028 11.0483 704.752 23.6793 722.863 23.9713C761.828 26.8233 801.177 29.7434 839.975 28.6414C839.705 31.4704 840.501 35.8763 839.003 36.8893C820.806 49.1853 802.405 61.3293 778.963 60.1813C778.614 61.5683 778.264 62.9553 777.915 64.3423Z" fill="#9F6EDB"/>
<path fill-rule="evenodd" clip-rule="evenodd" d="M106.173 1061.35C71.833 1054.94 32.374 1041.12 9.98002 1008.77C8.43402 1006.83 8.43202 1002.26 9.69402 999.995C10.486 998.57 15.272 998.219 17.713 999.037C41.188 1006.9 64.369 1015.68 87.995 1023.04C110.538 1028.26 133.627 1039.97 156.823 1032.55C157.781 1032.39 159.666 1032.73 159.731 1033.09C160.293 1036.2 161.811 1041.52 160.675 1042.19C142.428 1052.64 129.169 1062.87 106.173 1061.35Z" fill="#9F6EDB"/>
<path fill-rule="evenodd" clip-rule="evenodd" d="M184.37 49.4883C156.741 42.4103 129.322 34.3012 101.406 28.6382C76.3355 22.6182 48.6565 28.6402 24.2925 19.6552C42.8115 -7.93379 109.8 0.230205 138.099 10.5722C162.694 20.4572 190.418 22.9173 213.268 36.6793C204.642 44.0463 196.86 48.5843 185.149 46.2933C184.889 47.3583 184.63 48.4233 184.37 49.4883Z" fill="#9F6EDB"/>
<path fill-rule="evenodd" clip-rule="evenodd" d="M911.543 762.765C910.183 774.624 910.391 787.673 906.564 799.407C904.854 804.65 895.462 808.455 888.811 810.785C876.641 815.048 881.843 804.631 882.387 800.841C889.544 750.912 867.123 711.589 838.106 674.408C836.826 672.768 837.804 669.367 837.73 666.786C840.799 666.872 844.765 665.733 846.804 667.226C879.677 691.047 909.024 718.406 911.543 762.765Z" fill="#9F6EDB"/>
<path fill-rule="evenodd" clip-rule="evenodd" d="M27.9458 786.337C26.8048 764.014 25.5998 741.695 24.6548 719.364C24.5878 717.785 26.2418 714.918 27.4268 714.729C53.4138 707.399 60.9178 769.057 52.1728 784.344C48.3548 792.053 44.1568 800.297 37.9738 805.929C26.0538 816.647 26.9368 792.591 27.2618 786.364C27.4898 786.355 27.7178 786.346 27.9458 786.337Z" fill="#9F6EDB"/>
<path fill-rule="evenodd" clip-rule="evenodd" d="M622.388 997.823C644.945 998.095 693.963 1056.82 638.936 1027.99C648.217 1039.77 661.975 1048.53 666.377 1063.41C639.393 1062.99 616.687 1042.11 609.782 1015.6C606.503 1002.04 615.386 1000.4 622.388 997.823Z" fill="#9F6EDB"/>
<path fill-rule="evenodd" clip-rule="evenodd" d="M1428.93 240.11C1420.32 248.105 1413.79 256.494 1405.23 261.119C1400.93 263.442 1389.19 260.676 1387.5 257.074C1385.02 251.798 1374.83 243.917 1387.77 236.224C1394.82 232.03 1398.56 222.537 1404.56 216.16C1406.46 214.144 1413.07 212.971 1413.76 213.98C1418.87 221.472 1423.03 229.611 1428.93 240.11Z" fill="#9F6EDB"/>
<path fill-rule="evenodd" clip-rule="evenodd" d="M358.913 763.98C355.891 757.681 353.461 751.236 352.062 744.378C355.552 750.867 360.811 757.588 361.394 764.994C360.567 764.656 359.74 764.318 358.913 763.98Z" fill="#9F6EDB"/>
</svg>
