<svg width="1207" height="800" viewBox="0 0 1207 800" fill="none" xmlns="http://www.w3.org/2000/svg">
<path fill-rule="evenodd" clip-rule="evenodd" d="M698.515 799.629C666.322 799.629 634.092 800.592 601.941 799.415C545.49 797.348 489.014 795.671 432.594 793.219C410.221 792.249 387.799 792.188 365.462 790.645C313.451 787.041 261.349 783.803 209.289 786.071C167.38 787.895 125.494 787.517 83.6023 788.572C73.8858 788.822 64.4376 791.859 54.5624 791.115C43.5588 790.279 39.9357 787.279 38.7646 776.271C38.4047 772.892 38.6914 769.446 38.6731 766.031C38.5267 742.624 39.0635 719.181 38.051 695.811C36.8555 668.147 34.2509 640.551 30.4875 613.082C30.2253 611.155 29.9569 609.216 29.8715 607.276C28.6821 581.503 28.3039 555.663 26.1569 529.969C23.5341 498.494 23.0217 466.86 18.5324 435.513C16.6111 422.066 16.422 408.344 15.562 394.786C13.9517 369.55 11.829 344.332 11.3411 318.974C10.6762 284.498 9.7308 249.912 3.55196 215.79C3.20429 213.881 3.125 211.911 3.0884 209.966C2.07588 161.256 -1.31547 112.588 0.55099 63.8414C0.941361 53.6627 2.55164 43.5328 3.32018 33.3602C3.77155 27.4201 7.39467 25.5722 12.4817 23.7304C29.0297 17.7415 46.3402 15.4302 63.48 12.3381C91.2268 7.3372 119.266 4.40372 147.288 1.44586C151.643 0.988456 156.047 0.95186 160.432 0.860381C220.921 -0.389847 281.441 -0.383737 341.869 1.58614C375.959 2.6961 410.092 2.28137 444.122 4.22075C479.103 6.21502 514.132 7.61162 549.046 10.234C591.664 13.4298 634.19 18.0525 676.624 23.5291C716.137 28.6215 755.942 31.4331 795.492 36.312C846.118 42.5571 896.842 47.8873 947.316 55.5045C985.755 61.3044 1024.01 68.3849 1062.55 73.3493C1095.84 77.6366 1129.26 81.1251 1162.98 79.7772C1176.49 79.2345 1176.16 79.698 1177.2 93.2919C1179.09 117.998 1182.18 142.588 1184.75 167.22C1188.22 200.616 1194.19 233.623 1197.95 266.946C1200.13 286.254 1203.21 305.453 1205.51 324.749C1207.25 339.313 1207 354.047 1205.5 368.544C1204.55 377.777 1204.11 386.955 1203.87 396.195C1202.27 460.012 1201.13 523.846 1199.59 587.657C1198.5 632.982 1199.05 678.277 1198.05 723.572C1197.82 734.178 1200.08 745.954 1191.43 754.071C1180.71 764.116 1167.86 771.239 1152.89 773.105C1120.59 777.131 1088.28 781.052 1055.92 784.662C1043.85 786.01 1031.69 786.48 1019.58 787.681C997.808 789.84 975.831 789.859 953.995 791.499C910.285 794.768 866.442 795.347 822.739 797.951C781.286 800.428 739.901 798.604 698.515 799.629Z" fill="#FFE600"/>
</svg>
