<svg width="572" height="730" viewBox="0 0 572 730" fill="none" xmlns="http://www.w3.org/2000/svg">
<path fill-rule="evenodd" clip-rule="evenodd" d="M571.049 686.219C571.672 685.468 571.699 684.387 571.115 683.605C571.014 683.48 570.896 683.368 570.767 683.272C570.337 682.914 569.783 682.741 569.226 682.793C568.668 682.845 568.155 683.117 567.799 683.548L567.755 683.601C557.889 695.457 546.708 708.894 532.542 717.212C519.933 724.625 501.564 728.377 488.952 720.068C483.153 716.248 479.394 709.066 479.137 701.318C478.913 696.632 480.167 691.993 482.723 688.058C484.556 686.538 486.193 684.798 487.598 682.876C488.214 682.034 488.121 680.867 487.379 680.133C486.638 679.399 485.471 679.319 484.634 679.944C482.678 681.424 480.961 683.199 479.546 685.204C471.028 691.969 458.297 693.562 449.787 688.105C445.182 685.127 441.987 680.197 440.828 674.215C439.532 667.64 440.971 660.82 444.814 655.329C445.438 654.392 445.216 653.131 444.31 652.463C443.404 651.796 442.133 651.958 441.423 652.832C431.215 666.112 414.886 675.295 396.631 678.026C378.629 680.724 360.934 676.932 348.066 667.633C322.173 648.888 313.711 609.76 328.411 576.534C334.534 562.727 344.386 550.085 356.653 539.627C376.926 536.219 396.672 526.717 411.788 512.211C412.467 511.558 412.63 510.534 412.187 509.702C411.744 508.871 410.804 508.434 409.883 508.632C391.527 512.663 374.268 520.643 359.306 532.016C357.729 533.214 356.188 534.442 354.681 535.698C341.692 537.711 328.517 537.104 316.339 533.566C297.243 528.016 277.79 512.721 277.368 491.049C277.29 485.701 280.383 479.034 285.911 472.357C296.938 472.124 307.139 470.176 313.829 466.892C321.525 463.121 322.909 458.511 322.715 455.309C322.442 450.824 319.518 448.254 314.89 448.439C308.393 448.696 297.975 454.541 288.981 462.977C287.159 464.682 285.483 466.413 283.953 468.146C268.238 468.133 251.474 464.515 242.885 456.991C233.4 448.678 228.771 433.856 227.734 420.038C229.453 419.047 231.1 417.932 232.659 416.704C237.443 412.902 241.68 405.011 244.044 398.879C245.581 394.892 248.829 385.138 245.77 380.618C244.682 378.964 241.895 376.758 235.829 380.228C229.381 383.925 224.944 393.423 223.654 406.295C223.292 410.049 223.2 413.823 223.377 417.589C214.343 422.067 203.699 423.308 194.093 424.084C168.408 426.177 139.161 426.444 116.87 412.699C104.926 405.192 96.4866 393.214 93.4366 379.439C91.7048 371.325 91.3101 359.21 99.2485 347.542C110.841 330.503 127.878 327.476 145.863 324.315C146.663 324.169 147.465 324.026 148.269 323.882L148.277 323.881L148.288 323.879L148.301 323.877L148.316 323.874C149.249 323.707 150.186 323.54 151.124 323.368L187.925 316.578C188.969 316.411 189.727 315.496 189.696 314.44C189.664 313.383 188.854 312.514 187.801 312.41C137.286 306.436 89.5759 291.582 46.1093 268.365C30.3524 259.907 12.3198 245.947 15.9089 227.467C18.6138 213.558 33.4853 203.513 46.7774 200.782C48.049 200.517 50.5273 200.022 53.7066 199.436C59.8879 204.356 67.3206 208.574 75.0261 209.109C81.1604 209.532 86.757 207.569 91.6547 203.268C93.0076 202.12 97.0563 198.534 95.3442 195.081C94.127 192.635 90.5453 190.394 73.1696 192.251C66.8557 192.921 60.1728 193.983 54.9077 194.934C51.4225 191.98 48.1725 188.758 45.1876 185.298C35.2998 173.859 32.2191 156.987 37.0668 141.728C38.7973 142.174 40.5027 142.593 42.1828 143.009C42.521 143.093 42.8583 143.179 43.1914 143.259C47.5006 144.303 53.8388 145.417 59.8416 144.664C66.4804 143.824 71.1077 140.955 73.5984 136.122C75.8059 131.835 75.3293 126.998 72.2375 122.895C68.4848 117.895 61.935 115.259 55.9294 116.399C45.3813 118.397 38.0106 127.926 34.4151 136.668C25.2706 134.162 16.3235 131.078 8.7212 125.865C0.0209541 119.895 -8.68546 108.801 -7.01403 95.5437C-6.21098 89.1318 -2.1086 82.5035 3.6831 78.2372C5.71801 76.7113 7.9922 75.533 10.4077 74.7384C13.4367 74.8842 16.4698 74.6649 19.4492 74.094C20.4468 73.9003 21.1682 73.0248 21.1588 72.0063C21.1535 70.9922 20.4174 70.1216 19.4174 69.9476C16.2781 69.4023 13.0557 69.5757 9.99492 70.4569C-3.9256 69.4915 -16.6586 59.9618 -19.9251 46.8581C-23.8879 30.9383 -13.5689 11.4885 2.60047 4.38685C3.30823 4.09484 3.80755 3.44712 3.89748 2.68556C3.9874 1.92399 3.65905 1.17592 3.03643 0.725057C2.41695 0.27937 1.59994 0.201223 0.906711 0.527539C-7.82188 4.35998 -15.2172 11.3732 -19.9831 20.3943C-24.7489 29.4153 -26.1931 39.1307 -24.0166 47.875C-21.8401 56.6192 -16.0592 64.1707 -7.76821 69.167C-4.43012 71.1764 -0.814585 72.675 2.96481 73.6203C2.37409 73.9975 1.77617 74.3953 1.20363 74.8267C-5.48901 79.7493 -10.2215 87.4934 -11.1788 95.0019C-12.766 107.631 -6.06828 120.803 6.36366 129.293C14.299 134.768 23.7477 138.048 32.9779 140.587C27.8029 157.163 31.1964 175.51 41.9864 187.997C44.3652 190.76 46.9001 193.382 49.5787 195.85C48.1808 196.119 47.0411 196.345 46.241 196.51L46.2391 196.512L45.9022 196.577C37.9623 198.224 30.5301 201.751 24.2388 206.869C17.4813 212.436 13.1721 219.25 11.7529 226.556C9.49845 238.149 13.2775 255.437 44.0967 271.97C84.29 293.536 127.986 307.938 174.175 314.858L150.41 319.237L145.169 320.17L145.056 320.19C126.175 323.53 108.361 326.681 95.8002 345.178C88.9475 355.244 86.648 367.738 89.3496 380.332C92.6404 395.245 101.775 408.214 114.707 416.335C138.031 430.72 168.118 430.476 194.466 428.343C203.95 427.546 214.431 426.329 223.728 422.129C225.122 436.402 230.185 451.47 240.134 460.187C247.678 466.795 261.045 471.171 276.804 472.183C278.059 472.256 279.324 472.313 280.583 472.353C275.701 478.957 273.087 485.489 273.197 491.13C273.663 514.942 294.627 531.632 315.206 537.609C326.248 540.734 337.778 541.753 349.197 540.614C338.526 550.707 330.133 562.363 324.589 574.836C309.076 609.806 318.115 651.161 345.613 671.035C359.368 680.97 378.182 685.035 397.249 682.19C412.306 679.939 426.155 673.522 436.665 664.095C436.001 667.699 436.018 671.395 436.715 674.992C438.119 682.101 441.948 688.023 447.554 691.619C453.327 695.346 461.075 696.498 468.796 694.782C471.324 694.223 473.779 693.373 476.112 692.248C475.213 695.225 474.813 698.329 474.927 701.437C475.231 710.529 479.7 718.993 486.635 723.571C499.059 731.75 517.921 730.673 534.687 720.83C549.481 712.135 560.909 698.403 570.994 686.285L571.049 686.219ZM364.096 533.799C378.023 530.276 391.048 523.848 402.316 514.937C388.596 519.003 375.67 525.382 364.096 533.799ZM289.886 468.012C298.512 467.507 306.425 465.865 311.978 463.144C315.073 461.626 318.722 459.08 318.511 455.596C318.397 453.774 317.755 452.591 315.066 452.687C309.581 452.906 300.044 458.419 291.869 466.088C291.186 466.723 290.52 467.361 289.886 468.012ZM44.1438 139.028C42.2468 138.579 40.3589 138.109 38.476 137.612C41.7162 130.08 47.96 122.05 56.6595 120.381C61.0262 119.549 66.0025 121.538 68.7716 125.213L68.8043 125.256C70.0246 126.885 71.7737 130.197 69.7941 134.027C65.1224 143.113 50.2997 140.55 44.1438 139.028ZM227.516 415.255C228.379 414.688 229.226 414.08 230.044 413.433C233.441 410.745 237.394 404.448 240.115 397.398C242.95 390.05 243.352 384.597 242.28 383.014C241.538 381.959 238.77 383.441 237.928 383.925C232.754 386.889 228.99 395.419 227.852 406.751C227.577 409.577 227.465 412.416 227.516 415.255ZM75.2589 204.764C69.7512 204.382 64.247 201.682 59.3906 198.29C63.6322 197.583 68.4075 196.873 73.0326 196.344C88.2666 194.668 91.0642 196.428 91.4661 196.781C91.4029 197.048 91.0242 198.027 88.8165 199.962C84.793 203.492 80.2341 205.109 75.2589 204.764Z" fill="#9F6EDB"/>
</svg>
