<svg width="516" height="785" viewBox="0 0 516 785" fill="none" xmlns="http://www.w3.org/2000/svg">
<path fill-rule="evenodd" clip-rule="evenodd" d="M65.9879 784.016C66.9074 784.345 67.9321 784.001 68.4673 783.185C68.5501 783.046 68.6149 782.898 68.6608 782.743C68.8508 782.217 68.8231 781.637 68.584 781.131C68.3445 780.625 67.9137 780.236 67.3866 780.049L67.3219 780.025C52.8065 774.81 36.3556 768.899 23.6939 758.432C12.4162 749.119 2.60788 733.141 6.10163 718.447C7.70867 711.692 13.1713 705.703 20.3641 702.812C24.6909 700.998 29.4791 700.59 34.0507 701.646C36.1058 702.849 38.3012 703.792 40.5877 704.455C41.5901 704.746 42.6542 704.26 43.0904 703.311C43.5263 702.364 43.2027 701.239 42.3294 700.667C40.269 699.335 38.0145 698.329 35.6466 697.684C26.3762 691.994 20.5247 680.575 22.7423 670.712C23.9654 665.366 27.5057 660.678 32.7307 657.543C38.4654 654.076 45.3662 653.096 51.8403 654.829C52.9341 655.095 54.0434 654.455 54.3611 653.376C54.678 652.296 54.0914 651.157 53.0276 650.789C37.0566 645.739 22.8431 633.535 14.0327 617.315C5.34038 601.322 2.85169 583.397 7.18885 568.124C15.9477 537.381 49.8215 516.047 86.0714 518.497C101.14 519.528 116.389 524.462 130.412 532.412C140.548 550.298 156.231 565.603 175.032 574.846C175.878 575.261 176.896 575.063 177.526 574.362C178.155 573.663 178.244 572.63 177.743 571.832C167.678 555.961 154.276 542.473 138.471 532.303C136.806 531.231 135.125 530.202 133.429 529.215C127.096 517.698 123.16 505.11 122.319 492.457C121.003 472.615 128.722 449.104 148.943 441.294C153.942 439.392 161.265 440.018 169.43 442.929C173.42 453.212 178.74 462.131 184.114 467.295C190.29 473.237 195.095 472.961 198.037 471.683C202.159 469.893 203.574 466.266 201.817 461.98C199.353 455.963 190.298 448.172 179.294 442.606C177.068 441.477 174.869 440.494 172.717 439.649C167.355 424.878 165.021 407.887 169.154 397.242C173.721 385.486 186.066 376.067 198.696 370.366C200.216 371.643 201.826 372.809 203.514 373.854C208.722 377.05 217.587 378.332 224.158 378.456C228.429 378.537 238.706 378.252 241.907 373.832C243.089 372.244 244.21 368.871 238.873 364.357C233.194 359.563 222.752 358.642 210.215 361.832C206.564 362.776 202.985 363.981 199.507 365.435C192.209 358.477 187.403 348.899 183.388 340.138C172.637 316.718 162.383 289.327 167.675 263.679C170.644 249.887 179.013 237.86 190.914 230.283C197.946 225.88 209.196 221.366 222.876 224.834C242.852 229.901 251.523 244.875 260.645 260.694C261.056 261.395 261.464 262.1 261.874 262.807L261.878 262.813L261.884 262.824L261.89 262.835L261.898 262.848C262.374 263.668 262.851 264.491 263.334 265.313L282.301 297.573C282.815 298.497 283.934 298.896 284.916 298.506C285.899 298.114 286.438 297.056 286.175 296.031C274.512 246.519 272.152 196.606 279.103 147.82C281.661 130.121 288.612 108.401 307.205 105.453C321.2 103.238 335.726 113.777 342.839 125.333C343.522 126.437 344.835 128.597 346.473 131.384C343.964 138.875 342.543 147.302 344.675 154.726C346.376 160.635 350.134 165.223 355.851 168.354C357.393 169.233 362.147 171.811 364.807 169.021C366.689 167.041 367.569 162.908 359.882 147.216C357.092 141.512 353.809 135.595 351.114 130.973C352.699 126.688 354.615 122.532 356.845 118.543C364.213 105.339 379.013 96.6742 395.009 96.0106C395.183 97.7891 395.372 99.5351 395.556 101.256C395.592 101.603 395.628 101.949 395.666 102.289C396.159 106.696 397.28 113.033 400.041 118.416C403.1 124.367 407.378 127.734 412.772 128.422C417.556 129.03 421.938 126.927 424.736 122.619C428.151 117.382 428.388 110.326 425.263 105.072C419.777 95.8439 408.303 92.1766 398.858 91.7881C398.085 82.338 397.923 72.8757 400.222 63.9487C402.856 53.7313 410.303 41.7558 423.332 38.792C429.632 37.3537 437.264 38.9416 443.254 42.9249C445.384 44.3152 447.269 46.0492 448.842 48.0473C449.741 50.9435 450.984 53.7187 452.539 56.3231C453.063 57.1943 454.132 57.5728 455.086 57.2155C456.037 56.8637 456.603 55.8743 456.425 54.875C455.864 51.7386 454.599 48.7699 452.724 46.195C448.87 32.7839 453.47 17.5594 464.666 10.0082C478.27 0.839422 500.077 3.88396 512.28 16.6492C512.797 17.2144 513.576 17.4621 514.322 17.2862C515.069 17.1102 515.66 16.5458 515.87 15.8065C516.077 15.072 515.871 14.2775 515.327 13.7377C508.741 6.84625 499.621 2.2956 489.514 0.902522C479.407 -0.490556 469.784 1.47525 462.311 6.51118C454.839 11.5471 449.72 19.5622 447.86 29.062C447.114 32.886 446.942 36.7961 447.347 40.6708C446.79 40.2448 446.212 39.8189 445.611 39.4285C438.696 34.8231 429.8 33.0246 422.417 34.6931C410.007 37.5209 399.92 48.32 396.194 62.9058C393.763 72.2354 393.913 82.2358 394.684 91.7777C377.337 92.5843 361.257 102.048 353.214 116.458C351.431 119.638 349.834 122.917 348.431 126.279C347.7 125.057 347.098 124.063 346.669 123.368L346.667 123.367L346.49 123.072C342.227 116.175 336.371 110.397 329.41 106.235C321.868 101.79 313.99 100.071 306.64 101.236C294.975 103.083 280.022 112.547 275.026 147.162C268.508 192.307 269.919 238.294 279.215 284.064L266.971 263.23L264.302 258.624L264.245 258.525C254.648 241.925 245.595 226.263 223.917 220.786C212.115 217.789 199.588 219.901 188.677 226.748C175.789 234.94 166.726 247.959 163.518 262.89C157.978 289.727 168.498 317.915 179.514 341.945C183.507 350.585 188.235 360.018 195.361 367.317C182.425 373.509 169.998 383.421 165.209 395.75C161.58 405.099 162.04 419.157 166.479 434.312C166.839 435.516 167.218 436.724 167.612 437.921C159.736 435.592 152.704 435.37 147.44 437.403C125.224 445.984 116.711 471.393 118.132 492.775C118.973 504.219 121.959 515.404 126.934 525.744C113.8 519.168 99.9769 515.268 86.3599 514.325C48.1931 511.708 12.4237 534.346 3.1533 566.982C-1.4785 583.306 1.13604 602.376 10.3312 619.32C17.5966 632.699 28.363 643.518 40.8163 650.169C37.2027 650.779 33.7353 652.059 30.5933 653.943C24.3934 657.694 20.1377 663.319 18.6763 669.816C17.1488 676.516 18.7158 684.19 22.9689 690.859C24.3589 693.043 25.9974 695.06 27.8523 696.867C24.7479 697.04 21.6936 697.726 18.8128 698.896C10.373 702.291 3.94802 709.386 2.01794 717.468C-1.41836 731.941 6.04411 749.297 21.0284 761.685C34.2587 772.613 51.0705 778.655 65.9075 783.987L65.9879 784.016ZM138.435 537.414C146.508 549.296 157.003 559.337 169.23 566.878C160.717 555.375 150.302 545.411 138.435 537.414ZM174.873 445.178C178.298 453.112 182.547 459.986 187.003 464.273C189.488 466.662 193.128 469.22 196.329 467.831C198.003 467.101 198.895 466.093 197.885 463.599C195.804 458.52 187.362 451.443 177.359 446.383C176.528 445.959 175.701 445.551 174.873 445.178ZM399.968 101.737C399.74 99.8011 399.537 97.8662 399.359 95.927C407.545 96.3957 417.227 99.5163 421.771 107.12C424.046 110.939 423.879 116.296 421.373 120.155L421.343 120.2C420.23 121.904 417.715 124.681 413.44 124.13C403.304 122.848 400.643 108.042 399.968 101.737ZM203.117 368.526C203.944 369.143 204.805 369.73 205.693 370.278C209.381 372.551 216.65 374.112 224.205 374.257C232.08 374.409 237.342 372.921 238.462 371.372C239.2 370.314 236.86 368.22 236.117 367.594C231.563 363.746 222.26 363.127 211.222 365.933C208.473 366.641 205.766 367.507 203.117 368.526ZM348.838 153.459C347.313 148.153 347.968 142.057 349.494 136.333C351.609 140.077 353.91 144.322 355.989 148.487C362.774 162.229 362.077 165.46 361.882 165.958C361.61 165.99 360.561 165.969 357.987 164.556C353.294 161.983 350.215 158.252 348.838 153.459Z" fill="#9F6EDB"/>
</svg>
