<svg width="258" height="404" viewBox="0 0 258 404" fill="none" xmlns="http://www.w3.org/2000/svg">
<path d="M0.97699 400.007C0.99499 401.798 2.36199 403.286 4.14499 403.456C5.92799 403.625 7.55098 402.422 7.90698 400.667C9.79698 390.887 17.527 376.937 43.657 365.997C47.837 364.247 52.237 362.607 56.487 360.997C69.677 356.077 83.307 350.997 94.167 341.417C103.327 333.337 109.227 321.057 109.577 309.357C109.837 300.627 107.007 293.077 101.397 287.497C99.467 285.679 97.405 284.008 95.227 282.497C92.057 280.167 89.047 277.957 87.447 274.967C82.967 266.647 90.777 256.017 98.827 249.437C116.677 234.857 138.387 225.067 159.387 215.607C164.897 213.117 170.607 210.547 176.167 207.917C222.047 186.267 237.857 166.917 246.507 152.427C254.518 138.807 258.24 123.087 257.187 107.327C255.937 90.5766 248.937 76.1966 237.467 66.8266C231.037 61.5766 223.567 58.0566 216.347 54.6566C213.187 53.1666 209.927 51.6566 206.857 49.9866C195.047 43.6866 188.007 36.2266 185.947 27.8166C184.813 22.3566 186.218 16.6766 189.767 12.3666C191.277 10.5566 194.497 7.57665 199.117 7.87665C201.05 7.99665 202.715 6.52662 202.837 4.59662C202.958 2.66662 201.49 0.996648 199.557 0.876648C193.857 0.516648 188.467 2.99665 184.397 7.87665C179.419 13.8866 177.483 21.8566 179.147 29.4866C181.707 39.9066 189.917 48.8866 203.557 56.1666C206.787 57.8866 210.127 59.4666 213.357 60.9866C220.517 64.3566 227.277 67.5467 233.037 72.2567C255.147 90.2567 254.137 126.067 240.507 148.847C224.997 174.767 196.377 190.657 173.177 201.607C167.677 204.207 161.997 206.767 156.507 209.247C135.097 218.887 112.967 228.867 94.397 244.037C83.797 252.697 74.787 266.237 81.277 278.307C83.637 282.687 87.427 285.467 91.087 288.157C92.986 289.471 94.784 290.925 96.467 292.507C101.767 297.777 102.707 304.507 102.577 309.187C102.297 318.867 97.177 329.467 89.577 336.187C79.687 344.917 67.247 349.547 54.087 354.457C49.767 356.067 45.307 357.727 40.987 359.537C24.987 366.237 5.077 378.537 1.077 399.337C1.023 399.557 0.98999 399.781 0.97699 400.007Z" fill="#9F6EDB"/>
</svg>
