<svg width="1132" height="767" viewBox="0 0 1132 767" fill="none" xmlns="http://www.w3.org/2000/svg">
<path opacity="0.64" fill-rule="evenodd" clip-rule="evenodd" d="M696.655 270.809C780.549 249.919 864.438 229.037 948.338 208.159C1002.04 194.796 1055.76 181.434 1109.47 168.092C1113.39 167.118 1117.4 166.367 1121.3 165.361C1124.76 164.471 1127.96 164.507 1130.16 166.951C1132.6 169.65 1132.09 172.515 1129.17 174.777C1123.36 179.288 1117.47 183.755 1111.31 187.976C1093.14 200.42 1074.76 212.678 1056.57 225.102C1020.2 249.962 983.876 274.862 947.58 299.794C922.048 317.334 896.614 334.961 871.118 352.532C864.366 357.186 857.589 361.832 850.729 366.395C846.215 369.4 844.988 372.21 849.883 375.87C868.539 389.813 887.005 403.906 905.589 417.908C908.235 419.904 911.221 421.632 913.872 423.616C951.784 451.934 989.54 480.375 1027.59 508.582C1059.37 532.151 1091.52 555.442 1123.45 578.899C1126.12 580.859 1129.05 582.862 1130.73 585.302C1134.13 590.238 1130.39 594.284 1123.13 593.764C1120.33 593.565 1117.57 592.71 1114.89 591.931C1044.75 571.507 974.623 551.074 904.511 530.589C837.87 511.118 771.254 491.603 704.639 472.081C692.621 468.555 692.523 468.44 686.21 476.826C652.482 521.595 618.867 566.411 585.134 611.172C557.394 647.972 529.541 684.712 501.74 721.48C492.198 734.103 482.681 746.734 473.154 759.365C472.329 760.462 471.602 761.61 470.715 762.684C468.347 765.549 465.154 767.592 460.522 766.845C455.695 766.07 454.73 762.715 453.631 759.631C453.415 759.027 453.363 758.371 453.389 757.739C454.116 736.154 451.94 714.533 454.787 692.975C455.122 690.451 455.086 687.896 455.091 685.352C455.215 630.667 455.323 575.982 455.432 521.293C455.437 519.707 455.55 518.109 455.39 516.527C454.874 511.52 453.817 510.836 447.72 512.772C431.339 517.97 415.091 523.419 398.771 528.737C312.246 556.924 225.716 585.107 139.175 613.271C135.766 614.379 132.279 615.413 128.72 616.168C125.295 616.891 122.077 616.303 120.075 613.783C118.157 611.363 118.394 608.811 120.725 606.693C123.108 604.519 125.78 602.492 128.586 600.64C146.118 589.078 163.665 577.54 181.306 566.081C205.553 550.323 229.868 534.619 254.193 518.936C287.999 497.144 321.861 475.395 355.671 453.603C369.85 444.466 383.952 435.265 398.56 425.79C395.841 422.249 392.319 422.38 389.188 421.764C324.971 409.149 260.749 396.565 196.558 383.871C135.168 371.729 73.8084 359.471 12.4388 347.25C10.845 346.936 9.33367 346.368 7.74502 346.058C2.81399 345.096 -0.739853 343.16 0.131845 338.796C0.936489 334.77 4.76371 333.013 9.66894 332.481C33.277 329.893 56.8851 327.338 80.4931 324.758C107.758 321.777 135.013 318.721 162.293 315.816C189.172 312.95 216.091 310.303 242.969 307.433C269.842 304.568 296.674 301.484 323.542 298.61C344.313 296.388 365.115 294.341 385.902 292.223C386.717 292.14 387.558 292.191 388.373 292.1C395.831 291.253 397.043 289.811 393.654 284.767C389.863 279.131 385.649 273.662 381.518 268.161C346.222 221.167 310.848 174.201 275.594 127.186C256.21 101.34 237.007 75.4146 217.747 49.5168C216.519 47.8634 215.39 46.1544 214.472 44.3898C212.836 41.2579 214.564 38.7976 217.675 36.8819C220.486 35.145 223.771 34.684 226.835 36.3851C232.169 39.3461 237.409 42.4223 242.531 45.6019C303.178 83.2284 363.785 120.891 424.432 158.517C436.301 165.882 448.324 173.104 460.265 180.401C468.352 185.349 470.642 185.262 477.446 178.839C489.423 167.527 501.1 156.025 513.087 144.722C537.603 121.618 562.258 98.6097 586.821 75.5378C610.857 52.9587 634.857 30.3558 658.857 7.75682C662.983 3.87772 666.522 -1.60309 674.475 0.443771C682.702 2.5582 680.582 8.73855 680.587 13.5993" fill="#14FFFF"/>
</svg>
