<svg width="1132" height="767" viewBox="0 0 1132 767" fill="none" xmlns="http://www.w3.org/2000/svg">
<path fill-rule="evenodd" clip-rule="evenodd" d="M542.061 211.168C531.339 207.284 520.999 201.472 510.4 197.659C488.676 193.602 466.847 188.509 444.612 189.113C395.494 199.766 478.649 302.053 494.681 320.954C526.06 361.824 561.184 399.352 598.168 435.128C608.332 446.742 624.854 471.341 598.97 475.791C593.269 477.125 586.53 476.206 580.742 474.59C551.419 465.632 528.524 444.432 506.612 423.994C482.788 402.278 458.542 381.031 434.407 359.672C393.448 326.653 350.469 264.756 295.225 263.048C229.431 262.237 246.022 346.835 254.831 389.33C268.686 447.654 297.625 500.219 319.129 555.76C321.443 561.755 321.721 568.782 321.76 575.344C321.804 582.943 314.627 588.513 303.038 590.76C269.185 598.678 240.291 581.489 217.745 557.841C218.566 557.736 219.523 557.302 220.188 557.577C227.883 560.759 235.413 564.388 243.239 567.195C248.907 569.228 255.065 569.867 260.799 571.754C267.507 573.535 273.564 577.948 280.399 578.985C279.067 578.339 277.716 577.737 276.342 577.186C284.615 576.907 293.059 578.966 301.196 577.849C302.94 577.644 305.939 569.646 304.788 566.569C278.533 499.999 166.075 297.076 261.537 254.054C287.037 244.723 318.093 240.156 342.226 254.816C369.031 274.704 395.861 294.96 419.921 318.194C452.545 348.962 484.442 380.464 519.243 408.821C542.36 427.581 565.482 448.15 592.442 460.768C592.189 459.148 592.513 457.002 591.591 455.989C564.527 426.277 535.643 398.148 509.212 367.892C473.957 323.785 430.187 281.896 414.037 226.375C409.962 206.196 409.83 178.364 436.655 176.521C480.807 170.157 526.807 179.421 565.92 200.571C588.867 209.245 608.007 225.117 630.75 234.311C644.133 241.315 657.279 248.781 670.753 255.6C683.957 260.68 697.123 266.02 709.834 272.339C716.351 275.152 723.062 277.521 729.747 279.92C729.892 279.972 731.475 277.669 731.176 277.058C727.204 268.935 723.872 260.314 718.72 252.985C701.689 228.755 681.688 206.595 671.963 177.637C655.689 120.51 741.338 107.162 779.837 127.38C784.8 129.349 790.054 130.713 794.78 133.127C810.857 140.342 825.201 152.295 842.652 155.596C871.321 168.195 901.414 184.379 933.395 181.512C932.734 182.672 932.32 184.557 931.373 184.879C923.828 187.446 916.312 190.49 908.52 191.789C903.826 192.572 898.676 190.278 893.69 189.803C891.239 189.569 888.57 190.977 886.21 190.531C832.997 185.389 729.108 93.9345 689.688 152.407C678.501 179.606 710.368 205.819 721.982 228.59C731.468 243.798 740.99 259.075 749.02 275.062C753.596 284.172 746.219 292.138 735.994 295.773C720.449 301.299 708.71 292.664 695.887 287.636C686.404 283.918 677.062 279.821 667.778 275.625C657.382 269.197 645.762 265.229 634.838 259.94C606.301 243.527 577.4 227.759 547.818 213.529C548.715 213.591 549.613 213.652 550.511 213.714C547.725 212.551 545.245 209.752 542.061 211.168Z" fill="#9F6EDB"/>
<path fill-rule="evenodd" clip-rule="evenodd" d="M356.489 645.407C320.926 642.624 286.534 636.032 253.949 621.042C242.886 616.75 232.211 611.431 221.491 606.301C217.748 604.362 216.843 600.163 218.189 596.227C254.229 606.523 290.523 617.171 328.049 620.615C341.601 620.839 395.362 626.609 396.1 607.414C396.679 602.306 392.629 595.779 388.981 591.253C357.923 556.171 328.715 519.212 304.525 479.066C249.703 390.883 306.273 315.602 399.044 380.976C467.947 427.818 529.782 484.643 602.235 526.415C637.304 545.846 673.262 569.838 714.98 568.73C729.746 567.623 738.687 550.59 729.834 537.696C703.866 498.761 674.22 462.737 640.178 430.56C604.879 394.096 566.653 360.696 529.377 326.316C510.768 306.169 470.775 275.129 483.722 244.693C485.212 241.437 490.03 238.322 493.743 237.712C527.791 231.072 564.376 229.546 595.438 247.036C629.094 265.948 661.622 288.129 690.581 313.714C719.042 332.736 748.029 351.08 777.195 369C792.595 377.421 828.252 399.058 835.175 371.21C838.828 317.661 742.521 233.706 746.102 180.031C749.206 143.602 854.758 199.346 870.847 210.163C878.134 214.28 886.238 219.18 887.404 229.096C886.645 243.721 802.28 193.814 790.644 190.443C782.714 186.866 773.329 186.355 764.53 184.923C757.529 183.783 758.258 189.212 760.088 192.462C775.574 219.839 791.534 246.962 808.626 273.361C826.918 306.42 858.707 341.719 848.741 382.002C843.94 398.297 834.23 407.579 821.443 405.351C787.403 400.269 755.243 384.655 729.748 361.709C730.303 362.892 730.965 363.985 731.889 364.917C689.805 335.217 649.55 302.034 607.909 271.776C576.627 256.383 543.448 248.807 508.662 248.908C510.002 249.089 511.321 249.393 512.649 249.646C505.333 250.488 487.899 251.764 494.068 262.943C512.86 293.799 538.293 319.22 564.936 343.291C615.423 386.54 662.639 433.246 707.792 482.002C727.632 505.33 757.888 541.704 739.673 573.214C693.133 631.173 504.735 476.938 458.529 443.765C421.631 418.945 388.96 383.015 344.032 373.742C310.845 365.634 292.36 396.945 298.834 427.058C311.957 489.529 364.855 532.363 401.924 581.161C415.722 597.82 423.178 625.059 397.282 634.85C384.664 641.761 371.125 645.038 356.489 645.407Z" fill="#9F6EDB"/>
<path fill-rule="evenodd" clip-rule="evenodd" d="M379.544 503.173C382.465 510.839 389.123 515.732 393.799 522.136C400.316 531.54 406.357 541.274 412.586 550.877C419.236 561.129 426.46 571.062 432.38 581.72C440.275 595.937 452.43 608.452 453.13 625.824C455.694 657.505 435.769 662.932 410.832 654.253C416.087 651.651 422.765 653.011 428.28 651.017C460.82 636.184 417.421 594.953 406.757 577.042C378.157 531.273 328.588 479.859 342.261 421.79C369.301 388.675 445.744 482.457 467.069 500.946C484.931 517.171 503.684 532.608 522.883 547.24C553.026 572.54 588.681 588.602 625.596 601.228C657.284 610.861 689.244 622.303 722.601 624.029C749.425 622.881 787.625 619.83 770.982 583.479C749.851 531.717 719.101 484.979 690.168 437.386C681.878 425.038 673.586 412.611 665.111 400.397C657.16 388.819 616.16 343.557 625.596 332.04C637.831 323.44 698.588 372.49 711.458 381.463C749.987 412.451 793.678 436.214 840.043 453.258C867.554 466.721 899.322 448.9 888.447 415.891C881.394 396.175 874.511 376.381 866.769 356.933C855.965 333.257 841.085 310.819 832.526 286.192C826.25 265.928 828.138 233.581 861.343 249.582C879.354 258.87 896.723 269.401 914.706 278.749C918.749 280.851 924.256 279.956 928.943 281.061C932.58 281.918 936.604 283.056 939.238 285.424C942.366 292.585 936.84 296.351 929.704 295.185C921.128 293.73 911.956 292.984 904.353 289.246C885.224 279.24 868.227 264.955 848.051 256.681C847.367 256.369 843.04 260.613 843.373 262.055C848.868 302.031 875.639 333.196 890.394 369.754C896.219 383.527 901.518 397.664 905.401 412.086C914.682 440.128 895.562 476.398 862.767 470.389C839.976 469.755 819.914 460.087 799.593 451.266C776.238 442.869 755.838 428.599 735.065 415.338C706.183 396.277 678.801 375.109 651.879 353.394C649.362 351.748 646.729 349.572 643.806 348.853C662.759 375.551 684.087 401.191 703.491 427.739C726.011 467.019 755.026 502.63 774.002 543.877C780.306 558.094 787.221 572.085 792.666 586.626C799.895 605.929 784.691 634.538 765.802 636.072C708.212 643.569 652.662 625.078 598.632 607.326C557.751 594.704 521.939 570.735 488.78 544.246C477.541 534.744 465.621 525.453 456.549 513.817C425.495 486.603 397.825 455.849 363.505 432.437C362.74 431.844 360.698 431.491 360.528 431.78C359.704 433.181 358.545 435.037 358.89 436.375C364.956 458.879 369.879 481.853 379.544 503.173Z" fill="#9F6EDB"/>
<path fill-rule="evenodd" clip-rule="evenodd" d="M475.673 123.505C498.25 128.367 521.153 132.1 543.287 138.494C557.738 142.668 570.746 151.61 584.996 156.771C601.07 162.592 617.806 166.595 634.305 171.204C640.382 167.632 630.35 158.41 638.024 149.195C639.983 150.425 642.682 151.195 643.776 152.961C649.533 162.254 658.088 170.723 651.485 183.533C647.577 191.114 640.599 189.551 635.928 188.201C562.079 168.205 520.513 130.402 438.671 148.162C418.267 151.348 377.056 164.795 378.049 190.318C378.079 190.536 377.436 190.848 377.097 191.104C376.498 191.424 376.68 193.128 376.798 193.747C382.444 211.247 391.974 228.258 388.499 247.215C388.366 248.568 383.021 251.136 381.679 250.364C372.554 245.112 364.032 238.826 354.989 233.422C318.386 206.365 270.168 199.779 228.99 220.939C205.667 231.544 210.203 256.873 202.819 276.789C202.534 277.688 198.87 278.36 197.184 277.826C189.673 275.447 190.874 268.218 191.415 263.287C194.514 206.102 212.821 196.282 266.712 188.521C309.223 183.264 342.361 212.369 375.964 233.662C375.838 232.751 375.926 231.739 375.552 230.944C360.009 204.601 353.25 175.544 379.983 153.305C404.583 131.967 437.7 131.192 467.907 126.797C466.339 126.574 464.762 126.633 463.183 126.661C467.088 125.73 471.13 126.242 475.112 126.132C475.3 125.256 475.487 124.38 475.673 123.505Z" fill="#9F6EDB"/>
<path fill-rule="evenodd" clip-rule="evenodd" d="M836.991 623.863C837.574 632.511 837.37 640.851 826.938 643.611C825.306 644.043 822.903 641.56 820.857 640.425C823.939 637.116 827.244 626.457 825.915 622.885C821.483 611.143 815.59 599.908 809.688 588.781C790.011 560.163 780.842 526.995 770.992 494.11C768.851 486.861 768.272 478.385 769.941 471.153C770.616 468.229 779.885 464.616 784.065 465.731C805.436 472.952 823.866 488.286 844.476 497.374C857.961 503.407 872.179 507.944 886.338 512.283C911.22 519.549 920.046 490.901 927.206 473.128C925.135 475.453 924.1 478.551 922.492 481.212C940.244 439.284 908.074 401.713 894.334 363.859C891.683 355.269 874.549 314.283 880.316 309.563C884.091 306.572 888.39 306.201 891.786 311.049C894.114 315.012 898.998 317.541 899.592 322.358C896.348 324.11 890.611 320.529 893.583 326.662C903.271 346.999 913.947 366.954 922.196 387.864C929.717 406.926 935.87 426.763 940.115 446.79C946.276 491.218 930.243 547.956 872.943 528.02C842.777 516.185 815.139 499.104 787.03 483.183C786.458 482.863 784.046 484.337 784.107 484.595C790.304 535.047 825.919 575.241 836.991 623.863Z" fill="#9F6EDB"/>
<path fill-rule="evenodd" clip-rule="evenodd" d="M432.616 545.944C442.135 522.816 463.253 542.705 475.445 552.106C509.8 582.411 543.845 613.942 585.141 634.917C604.604 643.927 624.645 651.509 646.061 654.777C647.362 654.976 648.326 657.39 649.447 658.772C644.135 663.278 628.413 661.591 620.887 662.473C582.903 661.506 553.308 633.291 522.217 614.759C499.466 595.89 477.704 575.293 454.515 556.784C453.219 555.7 451.274 555.391 449.63 554.722C449.852 556.477 449.604 558.474 450.366 559.95C459.595 577.832 468.26 596.06 478.517 613.341C488.504 631.238 502.386 646.984 512.126 664.946C507.34 666.212 487.058 645.02 483.721 640.5C461.97 611.497 441.546 581.622 432.616 545.944Z" fill="#9F6EDB"/>
<path fill-rule="evenodd" clip-rule="evenodd" d="M385.196 107.737C397.187 110.967 409.222 114.049 421.119 117.596C422.766 118.087 423.728 120.876 425.008 122.602C397.667 126.605 369.823 124.334 346.606 141.991C344.739 142.958 341.797 143.073 340.921 144.528C336.572 151.747 331.229 158.874 329.099 166.802C325.966 178.462 321.132 181.461 308.361 180.068C270.96 177.108 240.373 146.802 201.865 155.031C199.139 155.52 195.833 162.194 193.847 155.734C192.852 152.495 194.957 146.456 197.706 144.34C201.964 141.063 207.823 139.227 213.266 138.255C241.396 130.966 263.148 143.872 288.494 153.469C296.513 156.087 305.108 156.951 313.471 158.466C313.817 158.529 314.82 157.263 314.817 156.619C316.307 123.711 354.768 111.361 385.196 107.737Z" fill="#9F6EDB"/>
<path fill-rule="evenodd" clip-rule="evenodd" d="M890.186 658.549C889.881 657.22 889.874 655.715 889.214 654.594C878.462 637.646 866.028 621.743 855.574 604.617C833.44 571.651 824.061 530.996 877.951 550.119C886.785 552.493 895.151 557.641 904.025 558.522C915.56 558.868 925.038 550.664 937.644 554.835C928.435 575.373 906.494 578.552 887.865 571.49C879.37 570.145 862.964 557.783 856.57 560.824C855.805 561.171 855.147 563.404 855.519 564.369C860.905 578.362 865.867 592.568 872.19 606.136C875.933 617.014 902.623 650.331 893.048 658.847C892.094 658.747 891.14 658.649 890.186 658.549Z" fill="#9F6EDB"/>
<path fill-rule="evenodd" clip-rule="evenodd" d="M288.889 329.016C289.402 329.185 289.693 329.389 289.837 329.314C291.462 328.063 297.105 326.322 297.295 324.65C294.362 326.091 291.595 327.032 288.889 329.016ZM328.993 298.405C346.17 298.289 360.301 314.745 372.351 334.066C372.93 334.995 371.752 337.019 371.392 338.533C352.197 326.19 332.132 320.673 309.312 324.744C290.361 327.345 277.766 340.398 262.733 350.233C261.364 345.537 257.479 339.493 259.129 336.413C275.281 311.446 292.576 298.315 328.993 298.405Z" fill="#9F6EDB"/>
<path fill-rule="evenodd" clip-rule="evenodd" d="M809.729 113.762C836.461 119.876 862.087 126.585 889.324 127.845C892.247 128.019 895.368 124.469 898.438 122.7C901.067 121.185 903.754 119.77 906.415 118.31C931.973 174.769 829.094 145.85 808.677 126.494C805.542 124.356 799.065 124.435 801.783 118.261C802.725 116.121 806.764 115.343 809.729 113.762Z" fill="#9F6EDB"/>
<path fill-rule="evenodd" clip-rule="evenodd" d="M251.582 519.667C251.582 527.367 251.801 535.078 251.39 542.756C251.311 544.222 248.75 545.556 247.334 546.952C245.547 544.257 242.798 541.777 242.139 538.829C239.241 525.862 237.5 512.622 234.306 499.737C228.649 478.185 219.455 455.926 200.595 442.653C199.637 441.55 199.178 438.374 199.88 437.789C201.74 436.241 205.358 434.077 206.502 434.835C236.863 449.883 250.023 488.157 251.582 519.667Z" fill="#9F6EDB"/>
<path fill-rule="evenodd" clip-rule="evenodd" d="M567.2 272.302C583.511 270.498 622.395 292.097 618.472 309.774C598.897 303.454 585.582 281.773 561.615 291.303C556.405 293.267 551.36 300.706 546.79 303.626C544.344 301.452 540.19 298.964 540.221 296.601C540.422 281.774 550.475 273.11 567.2 272.302Z" fill="#9F6EDB"/>
<path fill-rule="evenodd" clip-rule="evenodd" d="M934.144 654.228C919.073 644.495 906.833 632.039 898.501 616.331C895.64 610.923 902.68 604.123 911.921 601.076C916.207 599.662 920.45 597.982 924.456 595.921C925.879 595.189 926.278 592.663 927.628 591.533C928.787 590.561 931.741 589.633 932.012 590.018C935.409 594.838 941.015 599.896 941.025 604.903C941.008 615.381 926.627 620.855 916.436 621.938C920.633 632.517 931.267 638.973 938.336 647.667C940.917 650.99 936.702 651.628 934.144 654.228Z" fill="#9F6EDB"/>
<path fill-rule="evenodd" clip-rule="evenodd" d="M599.724 135.522C584.878 131.928 569.909 128.758 555.265 124.473C551.062 123.243 547.664 118.942 544.19 115.732C543.133 114.756 543.056 112.718 542.53 111.167C551.964 107.517 561.278 114.154 570.795 114.308C591.271 115.806 611.948 117.341 632.336 116.762C632.194 118.248 632.613 120.563 631.825 121.096C622.263 127.557 612.594 133.939 600.275 133.335C600.092 134.064 599.908 134.793 599.724 135.522Z" fill="#9F6EDB"/>
<path fill-rule="evenodd" clip-rule="evenodd" d="M246.732 659.439C228.687 656.07 207.951 648.806 196.184 631.807C195.371 630.786 195.37 628.388 196.033 627.196C196.45 626.447 198.965 626.262 200.247 626.692C212.583 630.824 224.764 635.437 237.18 639.304C249.026 642.05 261.159 648.203 273.348 644.303C273.851 644.218 274.842 644.397 274.876 644.586C275.171 646.223 275.969 649.016 275.372 649.371C265.783 654.862 258.816 660.236 246.732 659.439Z" fill="#9F6EDB"/>
<path fill-rule="evenodd" clip-rule="evenodd" d="M287.824 127.716C273.305 123.997 258.897 119.736 244.228 116.76C231.053 113.596 216.508 116.761 203.705 112.039C213.437 97.5417 248.639 101.832 263.509 107.266C276.434 112.461 291.002 113.754 303.01 120.985C298.477 124.857 294.388 127.241 288.234 126.037C288.097 126.597 287.961 127.157 287.824 127.716Z" fill="#9F6EDB"/>
<path fill-rule="evenodd" clip-rule="evenodd" d="M669.945 502.534C669.23 508.766 669.339 515.623 667.328 521.789C666.43 524.544 661.494 526.544 657.999 527.768C651.604 530.008 654.338 524.534 654.623 522.543C658.384 496.306 646.602 475.642 631.354 456.104C630.682 455.242 631.196 453.455 631.157 452.098C632.769 452.144 634.854 451.545 635.925 452.33C653.199 464.847 668.621 479.224 669.945 502.534Z" fill="#9F6EDB"/>
<path fill-rule="evenodd" clip-rule="evenodd" d="M205.624 514.921C205.025 503.191 204.392 491.462 203.895 479.728C203.86 478.898 204.729 477.391 205.352 477.292C219.008 473.44 222.951 505.841 218.355 513.874C216.349 517.925 214.143 522.257 210.894 525.217C204.63 530.849 205.094 518.208 205.265 514.935C205.385 514.931 205.505 514.926 205.624 514.921Z" fill="#9F6EDB"/>
<path fill-rule="evenodd" clip-rule="evenodd" d="M517.997 626.055C529.85 626.198 555.609 657.059 526.693 641.908C531.57 648.096 538.799 652.7 541.112 660.521C526.933 660.297 515.001 649.329 511.372 635.397C509.649 628.269 514.317 627.407 517.997 626.055Z" fill="#9F6EDB"/>
<path fill-rule="evenodd" clip-rule="evenodd" d="M941.826 227.885C937.298 232.087 933.869 236.495 929.372 238.925C927.113 240.146 920.941 238.692 920.052 236.8C918.75 234.027 913.397 229.886 920.195 225.843C923.9 223.639 925.865 218.651 929.02 215.3C930.018 214.24 933.492 213.624 933.853 214.154C936.539 218.091 938.726 222.368 941.826 227.885Z" fill="#9F6EDB"/>
<path fill-rule="evenodd" clip-rule="evenodd" d="M379.544 503.173C377.956 499.863 376.679 496.476 375.944 492.872C377.778 496.282 380.541 499.814 380.848 503.706C380.413 503.528 379.979 503.35 379.544 503.173Z" fill="#9F6EDB"/>
<path fill-rule="evenodd" clip-rule="evenodd" d="M696.655 270.809C780.549 249.919 864.438 229.037 948.338 208.159C1002.04 194.796 1055.76 181.434 1109.47 168.092C1113.39 167.118 1117.4 166.367 1121.3 165.361C1124.76 164.471 1127.96 164.507 1130.16 166.951C1132.6 169.65 1132.09 172.515 1129.17 174.777C1123.36 179.288 1117.47 183.755 1111.31 187.976C1093.14 200.42 1074.76 212.678 1056.57 225.102C1020.2 249.962 983.876 274.862 947.58 299.794C922.048 317.334 896.614 334.961 871.118 352.532C864.366 357.186 857.589 361.832 850.729 366.395C846.215 369.4 844.988 372.21 849.883 375.87C868.539 389.813 887.005 403.906 905.589 417.908C908.235 419.904 911.221 421.632 913.872 423.616C951.784 451.934 989.54 480.375 1027.59 508.582C1059.37 532.151 1091.52 555.442 1123.45 578.899C1126.12 580.859 1129.05 582.862 1130.73 585.302C1134.13 590.238 1130.39 594.284 1123.13 593.764C1120.33 593.565 1117.57 592.71 1114.89 591.931C1044.75 571.507 974.623 551.074 904.511 530.589C837.87 511.118 771.254 491.603 704.639 472.081C692.621 468.555 692.523 468.44 686.21 476.826C652.482 521.595 618.867 566.411 585.134 611.172C557.394 647.972 529.541 684.712 501.74 721.48C492.198 734.103 482.681 746.734 473.154 759.365C472.329 760.462 471.602 761.61 470.715 762.684C468.347 765.549 465.154 767.592 460.522 766.845C455.695 766.07 454.73 762.715 453.631 759.631C453.415 759.027 453.363 758.371 453.389 757.739C454.116 736.154 451.94 714.533 454.787 692.975C455.122 690.451 455.086 687.896 455.091 685.352C455.215 630.667 455.323 575.982 455.432 521.293C455.437 519.707 455.55 518.109 455.39 516.527C454.874 511.52 453.817 510.836 447.72 512.772C431.339 517.97 415.091 523.419 398.771 528.737C312.246 556.924 225.716 585.107 139.175 613.271C135.766 614.379 132.279 615.413 128.72 616.168C125.295 616.891 122.077 616.303 120.075 613.783C118.157 611.363 118.394 608.811 120.725 606.693C123.108 604.519 125.78 602.492 128.586 600.64C146.118 589.078 163.665 577.54 181.306 566.081C205.553 550.323 229.868 534.619 254.193 518.936C287.999 497.144 321.861 475.395 355.671 453.603C369.85 444.466 383.952 435.265 398.56 425.79C395.841 422.249 392.319 422.38 389.188 421.764C324.971 409.149 260.749 396.565 196.558 383.871C135.168 371.729 73.8084 359.471 12.4388 347.25C10.845 346.936 9.33367 346.368 7.74502 346.058C2.81399 345.096 -0.739853 343.16 0.131845 338.796C0.936489 334.77 4.76371 333.013 9.66894 332.481C33.277 329.893 56.8851 327.338 80.4931 324.758C107.758 321.777 135.013 318.721 162.293 315.816C189.172 312.95 216.091 310.303 242.969 307.433C269.842 304.568 296.674 301.484 323.542 298.61C344.313 296.388 365.115 294.341 385.902 292.223C386.717 292.14 387.558 292.191 388.373 292.1C395.831 291.253 397.043 289.811 393.654 284.767C389.863 279.131 385.649 273.662 381.518 268.161C346.222 221.167 310.848 174.201 275.594 127.186C256.21 101.34 237.007 75.4146 217.747 49.5168C216.519 47.8634 215.39 46.1544 214.472 44.3898C212.836 41.2579 214.564 38.7976 217.675 36.8819C220.486 35.145 223.771 34.684 226.835 36.3851C232.169 39.3461 237.409 42.4223 242.531 45.6019C303.178 83.2284 363.785 120.891 424.432 158.517C436.301 165.882 448.324 173.104 460.265 180.401C468.352 185.349 470.642 185.262 477.446 178.839C489.423 167.527 501.1 156.025 513.087 144.722C537.603 121.618 562.258 98.6097 586.821 75.5378C610.857 52.9587 634.857 30.3558 658.857 7.75682C662.983 3.87772 666.522 -1.60309 674.475 0.443771C682.702 2.5582 680.582 8.73855 680.587 13.5993" fill="#03CABE"/>
</svg>
